ISO-10303-21;
HEADER;
FILE_DESCRIPTION(('ViewDefinition [ReferenceView_V1.2]','RevitIdentifiers [ContentGUID: 278ba6b0-79b4-4464-b501-e6c5a87694ab, VersionGUID: 132000f2-7b1c-453d-85cd-0e2457cab049, NumberOfSaves: 3]','CoordinateReference [CoordinateBase: Shared Coordinates]','ExchangeRequirement [Architecture]'),'2;1');
FILE_NAME('01_wall_W1000cm_H400cm.ifc','2026-06-23T15:57:04+01:00',(''),(''),'ODA SDAI 24.12','Autodesk Revit 25.4.50.35 (ENG) - IFC 25.4.50.35','');
FILE_SCHEMA(('IFC4'));
ENDSEC;

DATA;
#1=IFCORGANIZATION($,'Autodesk Revit 2025 (ENG)',$,$,$);
#2=IFCAPPLICATION(#1,'2025','Autodesk Revit 2025 (ENG)','Revit');
#3=IFCCARTESIANPOINT((0.,0.,0.));
#4=IFCCARTESIANPOINT((0.,0.));
#5=IFCDIRECTION((1.,0.,0.));
#6=IFCDIRECTION((-1.,0.,0.));
#7=IFCDIRECTION((0.,1.,0.));
#8=IFCDIRECTION((0.,-1.,0.));
#9=IFCDIRECTION((0.,0.,1.));
#10=IFCDIRECTION((0.,0.,-1.));
#11=IFCDIRECTION((1.,0.));
#12=IFCDIRECTION((-1.,0.));
#13=IFCDIRECTION((0.,1.));
#14=IFCDIRECTION((0.,-1.));
#15=IFCPERSON($,'','peiling.song',$,$,$,$,$);
#16=IFCORGANIZATION($,'','',$,$);
#17=IFCPERSONANDORGANIZATION(#15,#16,$);
#18=IFCOWNERHISTORY(#17,#2,$,.NOCHANGE.,$,$,$,1780581721);
#19=IFCSIUNIT(*,.LENGTHUNIT.,.MILLI.,.METRE.);
#20=IFCSIUNIT(*,.AREAUNIT.,$,.SQUARE_METRE.);
#21=IFCSIUNIT(*,.VOLUMEUNIT.,$,.CUBIC_METRE.);
#22=IFCAXIS2PLACEMENT3D(#3,$,$);
#23=IFCDIRECTION((6.123233995736766E-017,1.));
#24=IFCGEOMETRICREPRESENTATIONCONTEXT($,'Model',3,0.01,#22,#23);
#25=IFCGEOMETRICREPRESENTATIONSUBCONTEXT('Axis','Model',*,*,*,*,#24,$,.GRAPH_VIEW.,$);
#26=IFCGEOMETRICREPRESENTATIONSUBCONTEXT('Body','Model',*,*,*,*,#24,$,.MODEL_VIEW.,$);
#27=IFCGEOMETRICREPRESENTATIONSUBCONTEXT('Box','Model',*,*,*,*,#24,$,.MODEL_VIEW.,$);
#28=IFCGEOMETRICREPRESENTATIONSUBCONTEXT('FootPrint','Model',*,*,*,*,#24,$,.MODEL_VIEW.,$);
#29=IFCPROJECT('0dYwQmURH4PBK1viLNYMjR',#18,'Project Number',$,$,'Project Name','Project Status',(#24),#180);
#30=IFCCLASSIFICATION('CSI (Construction Specifications Institute)','1998',$,'Uniformat','UniFormat Classification','https://www.csiresources.org/standards/uniformat',$);
#31=IFCAXIS2PLACEMENT3D(#3,$,$);
#32=IFCLOCALPLACEMENT(#43,#31);
#33=IFCPOSTALADDRESS($,$,$,$,('Enter address here'),$,'London','London','','United Kingdom');
#34=IFCBUILDING('0dYwQmURH4PBK1viLNYMjQ',#18,'',$,$,#32,$,'',.ELEMENT.,$,$,#33);
#35=IFCAXIS2PLACEMENT3D(#3,$,$);
#36=IFCLOCALPLACEMENT(#32,#35);
#37=IFCBUILDINGSTOREY('3Zu5Bv0LOHrPC10026FoQQ',#18,'Level 0',$,'Level:Circle Head - Project Datum',#36,$,'Level 0',.ELEMENT.,0.);
#38=IFCCARTESIANPOINT((0.,0.,4000.));
#39=IFCAXIS2PLACEMENT3D(#38,$,$);
#40=IFCLOCALPLACEMENT(#32,#39);
#41=IFCBUILDINGSTOREY('15Z0v90RiHrPC20026FoKR',#18,'Level 1',$,'Level:Circle Head - Project Datum',#40,$,'Level 1',.ELEMENT.,3999.9999999999995);
#42=IFCAXIS2PLACEMENT3D(#3,$,$);
#43=IFCLOCALPLACEMENT($,#42);
#44=IFCSITE('0dYwQmURH4PBK1viLNYMjP',#18,'Default',$,$,#43,$,$,.ELEMENT.,(51,30,23,112487),(0,-7,-37,-956022),0.,$,$);
#45=IFCPROPERTYSINGLEVALUE('Reference',$,IFCIDENTIFIER('Project Information'),$);
#46=IFCPROPERTYSET('2$OqovXcHDNJp4MhZ489u5',#18,'Pset_SiteCommon',$,(#45));
#47=IFCRELDEFINESBYPROPERTIES('0O$SibHcRmi_tfXrP3Abtg',#18,$,$,(#44),#46);
#48=IFCCARTESIANPOINT((-1013.2679771063005,-195.63078128607958,0.));
#49=IFCAXIS2PLACEMENT3D(#48,$,$);
#50=IFCLOCALPLACEMENT(#36,#49);
#51=IFCCARTESIANPOINTLIST3D(((-4.4165877606002455E-014,0.,0.),(1000.0000000000001,3.3839597790574773E-014,0.)));
#52=IFCINDEXEDPOLYCURVE(#51,$,.F.);
#53=IFCSHAPEREPRESENTATION(#25,'Axis','Curve3D',(#52));
#54=IFCPRODUCTDEFINITIONSHAPE($,$,(#53,#99));
#55=IFCCARTESIANPOINTLIST2D(((-6.2499999999997637,-500.00000000000006),(6.2500000000002371,-500.00000000000006),(6.2499999999997637,500.00000000000006),(-6.2500000000002371,500.00000000000006),(-6.2499999999997637,-500.00000000000006)));
#56=IFCINDEXEDPOLYCURVE(#55,$,.F.);
#57=IFCARBITRARYCLOSEDPROFILEDEF(.AREA.,'Wall-Ext_102Bwk-75Ins-100LBlk-12P',#56);
#58=IFCCARTESIANPOINT((500.,-138.74999999999997,0.));
#59=IFCAXIS2PLACEMENT3D(#58,#9,#7);
#60=IFCEXTRUDEDAREASOLID(#57,#59,#9,3999.9999999999995);
#61=IFCSIUNIT(*,.PLANEANGLEUNIT.,$,.RADIAN.);
#62=IFCDIMENSIONALEXPONENTS(0,0,0,0,0,0,0);
#63=IFCMEASUREWITHUNIT(IFCPLANEANGLEMEASURE(0.017453292519943278),#61);
#64=IFCCONVERSIONBASEDUNIT(#62,.PLANEANGLEUNIT.,'DEGREE',#63);
#65=IFCCARTESIANPOINTLIST2D(((-500.00000000000017,-50.),(499.99999999999994,-50.),(500.00000000000006,50.),(-500.00000000000006,50.),(-500.00000000000017,-50.)));
#66=IFCINDEXEDPOLYCURVE(#65,$,.F.);
#67=IFCARBITRARYCLOSEDPROFILEDEF(.AREA.,'Wall-Ext_102Bwk-75Ins-100LBlk-12P',#66);
#68=IFCCARTESIANPOINT((500.,-82.499999999999957,0.));
#69=IFCAXIS2PLACEMENT3D(#68,$,$);
#70=IFCEXTRUDEDAREASOLID(#67,#69,#9,3999.9999999999995);
#71=IFCCARTESIANPOINTLIST2D(((-500.00000000000006,-37.5),(500.00000000000006,-37.5),(500.00000000000006,37.5),(-500.00000000000006,37.499999999999972),(-500.00000000000006,-37.5)));
#72=IFCINDEXEDPOLYCURVE(#71,$,.F.);
#73=IFCARBITRARYCLOSEDPROFILEDEF(.AREA.,'Wall-Ext_102Bwk-75Ins-100LBlk-12P',#72);
#74=IFCCARTESIANPOINT((500.,5.,0.));
#75=IFCAXIS2PLACEMENT3D(#74,$,$);
#76=IFCEXTRUDEDAREASOLID(#73,#75,#9,3999.9999999999995);
#77=IFCCARTESIANPOINTLIST2D(((-51.249999999999609,-500.00000000000011),(51.250000000000348,-499.99999999999994),(51.249999999999602,499.99999999999994),(-51.250000000000334,499.99999999999994),(-51.249999999999609,-500.00000000000011)));
#78=IFCINDEXEDPOLYCURVE(#77,$,.F.);
#79=IFCARBITRARYCLOSEDPROFILEDEF(.AREA.,'Wall-Ext_102Bwk-75Ins-100LBlk-12P',#78);
#80=IFCCARTESIANPOINT((500.,93.750000000000043,0.));
#81=IFCAXIS2PLACEMENT3D(#80,#9,#8);
#82=IFCEXTRUDEDAREASOLID(#79,#81,#9,3999.9999999999995);
#83=IFCCOLOURRGB($,0.97647058823529409,0.97647058823529409,0.97647058823529409);
#84=IFCSURFACESTYLERENDERING(#83,0.,$,$,$,$,IFCNORMALISEDRATIOMEASURE(0.5),IFCSPECULAREXPONENT(128.),.NOTDEFINED.);
#85=IFCSURFACESTYLE('Plaster',.BOTH.,(#84));
#86=IFCSTYLEDITEM(#60,(#85),$);
#87=IFCCOLOURRGB($,0.70980392156862748,0.70980392156862748,0.70980392156862748);
#88=IFCSURFACESTYLERENDERING(#87,0.,$,$,$,$,IFCNORMALISEDRATIOMEASURE(0.5),IFCSPECULAREXPONENT(64.),.NOTDEFINED.);
#89=IFCSURFACESTYLE('Concrete Masonry Units _Low Density',.BOTH.,(#88));
#90=IFCSTYLEDITEM(#70,(#89),$);
#91=IFCCOLOURRGB($,0.49803921568627452,0.49803921568627452,0.49803921568627452);
#92=IFCSURFACESTYLERENDERING(#91,0.,$,$,$,$,IFCNORMALISEDRATIOMEASURE(0.5),IFCSPECULAREXPONENT(64.),.NOTDEFINED.);
#93=IFCSURFACESTYLE('Fiberglass Batt',.BOTH.,(#92));
#94=IFCSTYLEDITEM(#76,(#93),$);
#95=IFCCOLOURRGB($,0.66666666666666663,0.39215686274509803,0.41176470588235292);
#96=IFCSURFACESTYLERENDERING(#95,0.,$,$,$,$,IFCNORMALISEDRATIOMEASURE(0.5),IFCSPECULAREXPONENT(128.),.NOTDEFINED.);
#97=IFCSURFACESTYLE('Brick, Common',.BOTH.,(#96));
#98=IFCSTYLEDITEM(#82,(#97),$);
#99=IFCSHAPEREPRESENTATION(#26,'Body','SweptSolid',(#60,#70,#76,#82));
#100=IFCSHAPEREPRESENTATION(#26,'Body','SweptSolid',(#82));
#101=IFCSHAPEASPECT((#100),'Brick, Common',$,.U.,#54);
#102=IFCSHAPEREPRESENTATION(#26,'Body','SweptSolid',(#76));
#103=IFCSHAPEASPECT((#102),'Fiberglass Batt',$,.U.,#54);
#104=IFCSHAPEREPRESENTATION(#26,'Body','SweptSolid',(#70));
#105=IFCSHAPEASPECT((#104),'Concrete Masonry Units _Low Density',$,.U.,#54);
#106=IFCSHAPEREPRESENTATION(#26,'Body','SweptSolid',(#60));
#107=IFCSHAPEASPECT((#106),'Plaster',$,.U.,#54);
#108=IFCWALL('0hXkhiD$16FQZFO4CJEuZr',#18,'Basic Wall:Wall-Ext_102Bwk-75Ins-100LBlk-12P:314344',$,'Basic Wall:Wall-Ext_102Bwk-75Ins-100LBlk-12P',#50,#54,'314344',.NOTDEFINED.);
#109=IFCMATERIAL('Brick, Common',$,'Masonry');
#110=IFCMATERIAL('Fiberglass Batt',$,'Generic');
#111=IFCMATERIAL('Concrete Masonry Units _Low Density',$,'Masonry');
#112=IFCMATERIAL('Plaster',$,'Generic');
#113=IFCMATERIALCONSTITUENT('Brick, Common',$,#109,0.35344827586206895,'Masonry');
#114=IFCQUANTITYLENGTH('Width',$,$,102.5,$);
#115=IFCMATERIALCONSTITUENT('Fiberglass Batt',$,#110,0.25862068965517243,'Generic');
#116=IFCQUANTITYLENGTH('Width',$,$,75.,$);
#117=IFCMATERIALCONSTITUENT('Concrete Masonry Units _Low Density',$,#111,0.34482758620689657,'Masonry');
#118=IFCQUANTITYLENGTH('Width',$,$,100.,$);
#119=IFCMATERIALCONSTITUENT('Plaster',$,#112,0.043103448275862072,'Generic');
#120=IFCQUANTITYLENGTH('Width',$,$,12.5,$);
#121=IFCMATERIALCONSTITUENTSET('Basic Wall:Wall-Ext_102Bwk-75Ins-100LBlk-12P',$,(#113,#115,#117,#119));
#122=IFCPHYSICALCOMPLEXQUANTITY('Brick, Common',$,(#114),'Layer',$,$);
#123=IFCPHYSICALCOMPLEXQUANTITY('Fiberglass Batt',$,(#116),'Layer',$,$);
#124=IFCPHYSICALCOMPLEXQUANTITY('Concrete Masonry Units _Low Density',$,(#118),'Layer',$,$);
#125=IFCPHYSICALCOMPLEXQUANTITY('Plaster',$,(#120),'Layer',$,$);
#126=IFCQUANTITYLENGTH('Width',$,$,290.,$);
#127=IFCQUANTITYLENGTH('Height',$,$,3999.9999999999995,$);
#128=IFCQUANTITYLENGTH('Length',$,$,1000.0000000000001,$);
#129=IFCQUANTITYVOLUME('GrossVolume',$,$,1.1599999999999999,$);
#130=IFCQUANTITYAREA('GrossSideArea',$,$,3.9999999999999996,$);
#131=IFCQUANTITYAREA('NetSideArea',$,$,3.9999999999999996,$);
#132=IFCQUANTITYVOLUME('NetVolume',$,$,1.1599999999999997,$);
#133=IFCELEMENTQUANTITY('116e0qWnj2txAPhgFypae8',#18,'Qto_WallBaseQuantities',$,$,(#122,#123,#124,#125,#126,#127,#128,#129,#130,#131,#132));
#134=IFCRELDEFINESBYPROPERTIES('2$b$jKBA9oZQ619rSSYxxg',#18,$,$,(#108),#133);
#135=IFCWALLTYPE('2ru7YPT4T9MuTpOS4FRzxX',#18,'Basic Wall:Wall-Ext_102Bwk-75Ins-100LBlk-12P',$,$,(#155),$,'45419',$,.STANDARD.);
#136=IFCPROPERTYSINGLEVALUE('Reference',$,IFCIDENTIFIER('Wall-Ext_102Bwk-75Ins-100LBlk-12P'),$);
#137=IFCPROPERTYSET('0xVUHadWmyp4OD7s8FqOqj',#18,'Pset_EnvironmentalImpactIndicators',$,(#136));
#138=IFCPROPERTYSINGLEVALUE('Reference',$,IFCLABEL('Wall-Ext_102Bwk-75Ins-100LBlk-12P'),$);
#139=IFCPROPERTYSET('3LFxnxdSJ6MEgcDL3yjPz4',#18,'Pset_ReinforcementBarPitchOfWall',$,(#138));
#140=IFCPROPERTYSINGLEVALUE('IsExternal',$,IFCBOOLEAN(.T.),$);
#141=IFCPROPERTYSINGLEVALUE('LoadBearing',$,IFCBOOLEAN(.F.),$);
#142=IFCPROPERTYSINGLEVALUE('ExtendToStructure',$,IFCBOOLEAN(.F.),$);
#143=IFCPROPERTYSET('3AdQ203KP7edsYMt0qN$AF',#18,'Pset_WallCommon',$,(#136,#140,#141,#142));
#144=IFCRELDEFINESBYPROPERTIES('2r$4lgJFSbtYwydlR$6ZUL',#18,$,$,(#108),#137);
#145=IFCRELDEFINESBYPROPERTIES('2kCWW4BntYkMQ82FfyxLdq',#18,$,$,(#108),#139);
#146=IFCRELDEFINESBYPROPERTIES('2PcJYsDcefnowZAc6L5P6v',#18,$,$,(#108),#143);
#147=IFCSIUNIT(*,.MASSUNIT.,.KILO.,.GRAM.);
#148=IFCDERIVEDUNITELEMENT(#147,1);
#149=IFCSIUNIT(*,.THERMODYNAMICTEMPERATUREUNIT.,$,.KELVIN.);
#150=IFCDERIVEDUNITELEMENT(#149,-1);
#151=IFCSIUNIT(*,.TIMEUNIT.,$,.SECOND.);
#152=IFCDERIVEDUNITELEMENT(#151,-3);
#153=IFCDERIVEDUNIT((#148,#150,#152),.THERMALTRANSMITTANCEUNIT.,$);
#154=IFCPROPERTYSINGLEVALUE('ThermalTransmittance',$,IFCTHERMALTRANSMITTANCEMEASURE(0.23592605993668123),$);
#155=IFCPROPERTYSET('3orq6BN_LwRCX23Dley2E6',#18,'Pset_WallCommon',$,(#154));
#156=IFCPROPERTYSINGLEVALUE('Reference',$,IFCIDENTIFIER('Circle Head - Project Datum'),$);
#157=IFCPROPERTYSINGLEVALUE('AboveGround',$,IFCLOGICAL(.U.),$);
#158=IFCPROPERTYSET('2QFFSloDKLdASEirlNrsWG',#18,'Pset_BuildingStoreyCommon',$,(#156,#157));
#159=IFCRELDEFINESBYPROPERTIES('24vWbHxUvnwTMhwrnGQFQP',#18,$,$,(#37),#158);
#160=IFCRELCONTAINEDINSPATIALSTRUCTURE('3Zu5Bv0LOHrPC10066FoQQ',#18,$,$,(#108),#37);
#161=IFCPROPERTYSET('2y6jqut2mGsxPM5c1zUPr2',#18,'Pset_BuildingStoreyCommon',$,(#156,#157));
#162=IFCRELDEFINESBYPROPERTIES('03h9WtlPXy$ENv9AiS5UZC',#18,$,$,(#41),#161);
#163=IFCRELAGGREGATES('2YBewnrr694VzX_RFGFTGX',#18,$,$,#29,(#44));
#164=IFCRELAGGREGATES('1JaocP5MKBxelTxDOaDLAT',#18,$,$,#44,(#34));
#165=IFCRELAGGREGATES('2$1LAsj$T3CPRLiPj39tWH',#18,$,$,#34,(#37,#41));
#166=IFCPROPERTYSINGLEVALUE('NumberOfStoreys',$,IFCINTEGER(1),$);
#167=IFCPROPERTYSINGLEVALUE('IsLandmarked',$,IFCLOGICAL(.U.),$);
#168=IFCPROPERTYSET('3PT2wHCosoBAkXkLL2MGE8',#18,'Pset_BuildingCommon',$,(#45,#166,#167));
#169=IFCPROPERTYSINGLEVALUE('IsExternal',$,IFCBOOLEAN(.F.),$);
#170=IFCPROPERTYSET('1KlIL8RBfQZQS9zl6EuZ9J',#18,'Pset_BuildingElementProxyCommon',$,(#45,#169));
#171=IFCPROPERTYSET('1heCxQyklatoKzuacdMIzv',#18,'Pset_BuildingStoreyCommon',$,(#45,#157));
#172=IFCPROPERTYSET('2ke$i3$ZinM4v8ZnD4aMjE',#18,'Pset_BuildingSystemCommon',$,(#45));
#173=IFCRELDEFINESBYPROPERTIES('0XpLhTPvMkXOqDV4KGGTr9',#18,$,$,(#34),#168);
#174=IFCRELDEFINESBYPROPERTIES('27E1wCfKVnw6ovNYqKjsER',#18,$,$,(#34),#170);
#175=IFCRELDEFINESBYPROPERTIES('1f3tpsTxHzpa7_9lyg_sFs',#18,$,$,(#34),#171);
#176=IFCRELDEFINESBYPROPERTIES('2wnNrohms1hP5p7igL5pM6',#18,$,$,(#34),#172);
#177=IFCRELASSOCIATESMATERIAL('1qVu2fC5a9tGtrEPo7s4mP',#18,$,$,(#108,#135),#121);
#178=IFCRELDEFINESBYTYPE('0gcPovOn7QcR6iCsNwgUL8',#18,$,$,(#108),#135);
#179=IFCPRESENTATIONLAYERASSIGNMENT('A-WALL-____-OTLN',$,(#53,#99,#100,#102,#104,#106),$);
#180=IFCUNITASSIGNMENT((#19,#20,#21,#64,#153));
ENDSEC;

END-ISO-10303-21;