ISO-10303-21;
HEADER;
FILE_DESCRIPTION(('ViewDefinition [ReferenceView_V1.2]','RevitIdentifiers [ContentGUID: 278ba6b0-79b4-4464-b501-e6c5a87694ab, VersionGUID: fe3bc31a-2e15-40f9-9b8b-8f0f41f0f61d, NumberOfSaves: 2]','CoordinateReference [CoordinateBase: Shared Coordinates]','ExchangeRequirement [Architecture]'),'2;1');
FILE_NAME('SampleProject_1_col_floor_wall_win.ifc','2026-06-23T22:37:21+01:00',(''),(''),'ODA SDAI 24.12','Autodesk Revit 25.4.50.35 (ENG) - IFC 25.4.50.35','');
FILE_SCHEMA(('IFC4'));
ENDSEC;

DATA;
#1=IFCORGANIZATION($,'Autodesk Revit 2025 (ENG)',$,$,$);
#2=IFCAPPLICATION(#1,'2025','Autodesk Revit 2025 (ENG)','Revit');
#3=IFCCARTESIANPOINT((0.,0.,0.));
#4=IFCCARTESIANPOINT((0.,0.));
#5=IFCDIRECTION((1.,0.,0.));
#6=IFCDIRECTION((-1.,0.,0.));
#7=IFCDIRECTION((0.,1.,0.));
#8=IFCDIRECTION((0.,-1.,0.));
#9=IFCDIRECTION((0.,0.,1.));
#10=IFCDIRECTION((0.,0.,-1.));
#11=IFCDIRECTION((1.,0.));
#12=IFCDIRECTION((-1.,0.));
#13=IFCDIRECTION((0.,1.));
#14=IFCDIRECTION((0.,-1.));
#15=IFCPERSON($,'','peiling.song',$,$,$,$,$);
#16=IFCORGANIZATION($,'','',$,$);
#17=IFCPERSONANDORGANIZATION(#15,#16,$);
#18=IFCOWNERHISTORY(#17,#2,$,.NOCHANGE.,$,$,$,1782246994);
#19=IFCSIUNIT(*,.LENGTHUNIT.,.MILLI.,.METRE.);
#20=IFCSIUNIT(*,.AREAUNIT.,$,.SQUARE_METRE.);
#21=IFCSIUNIT(*,.VOLUMEUNIT.,$,.CUBIC_METRE.);
#22=IFCAXIS2PLACEMENT3D(#3,$,$);
#23=IFCDIRECTION((6.123233995736766E-017,1.));
#24=IFCGEOMETRICREPRESENTATIONCONTEXT($,'Model',3,0.01,#22,#23);
#25=IFCGEOMETRICREPRESENTATIONSUBCONTEXT('Axis','Model',*,*,*,*,#24,$,.GRAPH_VIEW.,$);
#26=IFCGEOMETRICREPRESENTATIONSUBCONTEXT('Body','Model',*,*,*,*,#24,$,.MODEL_VIEW.,$);
#27=IFCGEOMETRICREPRESENTATIONSUBCONTEXT('Box','Model',*,*,*,*,#24,$,.MODEL_VIEW.,$);
#28=IFCGEOMETRICREPRESENTATIONSUBCONTEXT('FootPrint','Model',*,*,*,*,#24,$,.MODEL_VIEW.,$);
#29=IFCPROJECT('0dYwQmURH4PBK1viLNYMjR',#18,'Project Number',$,$,'Project Name','Project Status',(#24),#519);
#30=IFCCLASSIFICATION('CSI (Construction Specifications Institute)','1998',$,'Uniformat','UniFormat Classification','https://www.csiresources.org/standards/uniformat',$);
#31=IFCAXIS2PLACEMENT3D(#3,$,$);
#32=IFCLOCALPLACEMENT(#43,#31);
#33=IFCPOSTALADDRESS($,$,$,$,('Enter address here'),$,'London','London','','United Kingdom');
#34=IFCBUILDING('0dYwQmURH4PBK1viLNYMjQ',#18,'',$,$,#32,$,'',.ELEMENT.,$,$,#33);
#35=IFCAXIS2PLACEMENT3D(#3,$,$);
#36=IFCLOCALPLACEMENT(#32,#35);
#37=IFCBUILDINGSTOREY('3Zu5Bv0LOHrPC10026FoQQ',#18,'Level 0',$,'Level:Circle Head - Project Datum',#36,$,'Level 0',.ELEMENT.,0.);
#38=IFCCARTESIANPOINT((0.,0.,4000.));
#39=IFCAXIS2PLACEMENT3D(#38,$,$);
#40=IFCLOCALPLACEMENT(#32,#39);
#41=IFCBUILDINGSTOREY('15Z0v90RiHrPC20026FoKR',#18,'Level 1',$,'Level:Circle Head - Project Datum',#40,$,'Level 1',.ELEMENT.,3999.9999999999995);
#42=IFCAXIS2PLACEMENT3D(#3,$,$);
#43=IFCLOCALPLACEMENT($,#42);
#44=IFCSITE('0dYwQmURH4PBK1viLNYMjP',#18,'Default',$,$,#43,$,$,.ELEMENT.,(51,30,23,112487),(0,-7,-37,-956022),0.,$,$);
#45=IFCPROPERTYSINGLEVALUE('Reference',$,IFCIDENTIFIER('Project Information'),$);
#46=IFCPROPERTYSET('2$OqovXcHDNJp4MhZ489u5',#18,'Pset_SiteCommon',$,(#45));
#47=IFCRELDEFINESBYPROPERTIES('0O$SibHcRmi_tfXrP3Abtg',#18,$,$,(#44),#46);
#48=IFCAXIS2PLACEMENT3D(#3,$,$);
#49=IFCLOCALPLACEMENT(#36,#48);
#56=IFCCARTESIANPOINTLIST2D(((-3773.7365251076953,-156.31643453683856),(-3773.7365251076953,2640.4221591346259),(3826.263474892316,2640.4221591346259),(3826.263474892316,-156.31643453683836),(-3773.7365251076953,-156.31643453683856)));
#57=IFCINDEXEDPOLYCURVE(#56,$,.F.);
#58=IFCSHAPEREPRESENTATION(#28,'FootPrint','Curve2D',(#57));
#59=IFCPRODUCTDEFINITIONSHAPE($,$,(#58,#115));
#60=IFCSLAB('2d8M4lspbAtgpmI2Wz$FAF',#18,'Floor:Floor-Grnd-Susp_65Scr-80Ins-100Blk-75PC:314509',$,'Floor:Floor-Grnd-Susp_65Scr-80Ins-100Blk-75PC',#49,#59,'314509',.FLOOR.);
#61=IFCCARTESIANPOINTLIST2D(((-1398.3692968357318,-3800.0000000000055),(1398.3692968357323,-3800.0000000000055),(1398.3692968357323,3800.0000000000055),(-1398.369296835732,3800.0000000000055),(-1398.3692968357318,-3800.0000000000055)));
#62=IFCINDEXEDPOLYCURVE(#61,$,.F.);
#63=IFCARBITRARYCLOSEDPROFILEDEF(.AREA.,'Floor-Grnd-Susp_65Scr-80Ins-100Blk-75PC',#62);
#64=IFCCARTESIANPOINT((26.263474892310242,1242.0528622988934,-65.));
#65=IFCAXIS2PLACEMENT3D(#64,#9,#7);
#66=IFCEXTRUDEDAREASOLID(#63,#65,#9,65.);
#67=IFCSIUNIT(*,.PLANEANGLEUNIT.,$,.RADIAN.);
#68=IFCDIMENSIONALEXPONENTS(0,0,0,0,0,0,0);
#69=IFCMEASUREWITHUNIT(IFCPLANEANGLEMEASURE(0.017453292519943278),#67);
#70=IFCCONVERSIONBASEDUNIT(#68,.PLANEANGLEUNIT.,'DEGREE',#69);
#71=IFCCARTESIANPOINTLIST2D(((-1398.3692968357318,-3800.0000000000055),(1398.3692968357323,-3800.0000000000055),(1398.3692968357323,3800.0000000000055),(-1398.369296835732,3800.0000000000055),(-1398.3692968357318,-3800.0000000000055)));
#72=IFCINDEXEDPOLYCURVE(#71,$,.F.);
#73=IFCARBITRARYCLOSEDPROFILEDEF(.AREA.,'Floor-Grnd-Susp_65Scr-80Ins-100Blk-75PC',#72);
#74=IFCCARTESIANPOINT((26.263474892310242,1242.0528622988934,-145.));
#75=IFCAXIS2PLACEMENT3D(#74,#9,#7);
#76=IFCEXTRUDEDAREASOLID(#73,#75,#9,79.999999999999986);
#77=IFCCARTESIANPOINTLIST2D(((-1398.3692968357318,-3800.0000000000055),(1398.3692968357323,-3800.0000000000055),(1398.3692968357323,3800.0000000000055),(-1398.369296835732,3800.0000000000055),(-1398.3692968357318,-3800.0000000000055)));
#78=IFCINDEXEDPOLYCURVE(#77,$,.F.);
#79=IFCARBITRARYCLOSEDPROFILEDEF(.AREA.,'Floor-Grnd-Susp_65Scr-80Ins-100Blk-75PC',#78);
#80=IFCCARTESIANPOINT((26.263474892310242,1242.0528622988934,-295.));
#81=IFCAXIS2PLACEMENT3D(#80,#9,#7);
#82=IFCEXTRUDEDAREASOLID(#79,#81,#9,150.);
#83=IFCCARTESIANPOINTLIST2D(((-1398.3692968357318,-3800.0000000000055),(1398.3692968357323,-3800.0000000000055),(1398.3692968357323,3800.0000000000055),(-1398.369296835732,3800.0000000000055),(-1398.3692968357318,-3800.0000000000055)));
#84=IFCINDEXEDPOLYCURVE(#83,$,.F.);
#85=IFCARBITRARYCLOSEDPROFILEDEF(.AREA.,'Floor-Grnd-Susp_65Scr-80Ins-100Blk-75PC',#84);
#86=IFCCARTESIANPOINT((26.263474892310242,1242.0528622988934,-395.));
#87=IFCAXIS2PLACEMENT3D(#86,#9,#7);
#88=IFCEXTRUDEDAREASOLID(#85,#87,#9,100.);
#89=IFCCARTESIANPOINTLIST2D(((-1398.3692968357318,-3800.0000000000055),(1398.3692968357323,-3800.0000000000055),(1398.3692968357323,3800.0000000000055),(-1398.369296835732,3800.0000000000055),(-1398.3692968357318,-3800.0000000000055)));
#90=IFCINDEXEDPOLYCURVE(#89,$,.F.);
#91=IFCARBITRARYCLOSEDPROFILEDEF(.AREA.,'Floor-Grnd-Susp_65Scr-80Ins-100Blk-75PC',#90);
#92=IFCCARTESIANPOINT((26.263474892310242,1242.0528622988934,-470.));
#93=IFCAXIS2PLACEMENT3D(#92,#9,#7);
#94=IFCEXTRUDEDAREASOLID(#91,#93,#9,75.);
#95=IFCCOLOURRGB($,0.49803921568627452,0.49803921568627452,0.49803921568627452);
#96=IFCSURFACESTYLERENDERING(#95,0.,$,$,$,$,IFCNORMALISEDRATIOMEASURE(0.5),IFCSPECULAREXPONENT(0.),.NOTDEFINED.);
#97=IFCSURFACESTYLE('Concrete, Sand/Cement Screed',.BOTH.,(#96));
#98=IFCSTYLEDITEM(#66,(#97),$);
#99=IFCCOLOURRGB($,0.49803921568627452,0.49803921568627452,0.49803921568627452);
#100=IFCSURFACESTYLERENDERING(#99,0.,$,$,$,$,IFCNORMALISEDRATIOMEASURE(0.5),IFCSPECULAREXPONENT(64.),.NOTDEFINED.);
#101=IFCSURFACESTYLE('Rigid insulation',.BOTH.,(#100));
#102=IFCSTYLEDITEM(#76,(#101),$);
#103=IFCCOLOURRGB($,1.,1.,1.);
#104=IFCSURFACESTYLERENDERING(#103,0.,$,$,$,$,IFCNORMALISEDRATIOMEASURE(0.5),IFCSPECULAREXPONENT(64.),.NOTDEFINED.);
#105=IFCSURFACESTYLE('Air',.BOTH.,(#104));
#106=IFCSTYLEDITEM(#82,(#105),$);
#107=IFCCOLOURRGB($,0.70980392156862748,0.70980392156862748,0.70980392156862748);
#108=IFCSURFACESTYLERENDERING(#107,0.,$,$,$,$,IFCNORMALISEDRATIOMEASURE(0.5),IFCSPECULAREXPONENT(128.),.NOTDEFINED.);
#109=IFCSURFACESTYLE('Concrete Masonry, Floor Block',.BOTH.,(#108));
#110=IFCSTYLEDITEM(#88,(#109),$);
#111=IFCCOLOURRGB($,0.75294117647058822,0.75294117647058822,0.75294117647058822);
#112=IFCSURFACESTYLERENDERING(#111,0.,$,$,$,$,IFCNORMALISEDRATIOMEASURE(0.5),IFCSPECULAREXPONENT(128.),.NOTDEFINED.);
#113=IFCSURFACESTYLE('Concrete, Precast',.BOTH.,(#112));
#114=IFCSTYLEDITEM(#94,(#113),$);
#115=IFCSHAPEREPRESENTATION(#26,'Body','SweptSolid',(#66,#76,#82,#88,#94));
#116=IFCSHAPEREPRESENTATION(#26,'Body','SweptSolid',(#66));
#117=IFCSHAPEASPECT((#116),'Concrete, Sand/Cement Screed',$,.U.,#59);
#118=IFCSHAPEREPRESENTATION(#26,'Body','SweptSolid',(#76));
#119=IFCSHAPEASPECT((#118),'Rigid insulation',$,.U.,#59);
#120=IFCSHAPEREPRESENTATION(#26,'Body','SweptSolid',(#82));
#121=IFCSHAPEASPECT((#120),'Air',$,.U.,#59);
#122=IFCSHAPEREPRESENTATION(#26,'Body','SweptSolid',(#88));
#123=IFCSHAPEASPECT((#122),'Concrete Masonry, Floor Block',$,.U.,#59);
#124=IFCSHAPEREPRESENTATION(#26,'Body','SweptSolid',(#94));
#125=IFCSHAPEASPECT((#124),'Concrete, Precast',$,.U.,#59);
#126=IFCSLABTYPE('2ru7YPT4T9MuTpOS4FRzx_',#18,'Floor:Floor-Grnd-Susp_65Scr-80Ins-100Blk-75PC',$,$,(#186),$,'45428',$,.FLOOR.);
#127=IFCMATERIAL('Concrete, Sand/Cement Screed',$,'Concrete');
#128=IFCMATERIAL('Vapor Retarder',$,'Generic');
#129=IFCCOLOURRGB($,0.47058823529411764,0.47058823529411764,0.47058823529411764);
#130=IFCSURFACESTYLERENDERING(#129,0.,$,$,$,$,IFCNORMALISEDRATIOMEASURE(0.5),IFCSPECULAREXPONENT(64.),.NOTDEFINED.);
#131=IFCSURFACESTYLE('Vapor Retarder',.BOTH.,(#130));
#132=IFCMATERIAL('Rigid insulation',$,'Generic');
#133=IFCMATERIAL('Air',$,'Gas');
#134=IFCMATERIAL('Damp-proofing',$,'Generic');
#135=IFCCOLOURRGB($,0.49803921568627452,0.49803921568627452,0.49803921568627452);
#136=IFCSURFACESTYLERENDERING(#135,0.,$,$,$,$,IFCNORMALISEDRATIOMEASURE(0.5),IFCSPECULAREXPONENT(64.),.NOTDEFINED.);
#137=IFCSURFACESTYLE('Damp-proofing',.BOTH.,(#136));
#138=IFCMATERIAL('Concrete Masonry, Floor Block',$,'Concrete');
#139=IFCMATERIAL('Concrete, Precast',$,'Concrete');
#140=IFCMATERIALCONSTITUENT('Concrete, Sand/Cement Screed',$,#127,0.13829787234042554,'Concrete');
#141=IFCQUANTITYLENGTH('Width',$,$,65.,$);
#142=IFCMATERIALCONSTITUENT('Rigid insulation',$,#132,0.1702127659574468,'Generic');
#143=IFCQUANTITYLENGTH('Width',$,$,80.,$);
#144=IFCMATERIALCONSTITUENT('Air',$,#133,0.31914893617021278,'Gas');
#145=IFCQUANTITYLENGTH('Width',$,$,150.,$);
#146=IFCMATERIALCONSTITUENT('Concrete Masonry, Floor Block',$,#138,0.21276595744680851,'Concrete');
#147=IFCQUANTITYLENGTH('Width',$,$,100.,$);
#148=IFCMATERIALCONSTITUENT('Concrete, Precast',$,#139,0.15957446808510639,'Concrete');
#149=IFCQUANTITYLENGTH('Width',$,$,75.,$);
#150=IFCMATERIALCONSTITUENTSET('Floor:Floor-Grnd-Susp_65Scr-80Ins-100Blk-75PC',$,(#140,#142,#144,#146,#148));
#151=IFCPHYSICALCOMPLEXQUANTITY('Concrete, Sand/Cement Screed',$,(#141),'Layer',$,$);
#152=IFCPHYSICALCOMPLEXQUANTITY('Rigid insulation',$,(#143),'Layer',$,$);
#153=IFCPHYSICALCOMPLEXQUANTITY('Air',$,(#145),'Layer',$,$);
#154=IFCPHYSICALCOMPLEXQUANTITY('Concrete Masonry, Floor Block',$,(#147),'Layer',$,$);
#155=IFCPHYSICALCOMPLEXQUANTITY('Concrete, Precast',$,(#149),'Layer',$,$);
#156=IFCQUANTITYLENGTH('Width',$,$,470.,$);
#157=IFCPROPERTYSINGLEVALUE('Reference',$,IFCIDENTIFIER('Floor-Grnd-Susp_65Scr-80Ins-100Blk-75PC'),$);
#158=IFCPROPERTYSET('0St4_1fl5ivBcvI5td5CLA',#18,'Pset_EnvironmentalImpactIndicators',$,(#157));
#159=IFCPROPERTYSINGLEVALUE('Reference',$,IFCLABEL('Floor-Grnd-Susp_65Scr-80Ins-100Blk-75PC'),$);
#160=IFCPROPERTYSET('3_oaKBVGYZPeXmSCZCNDzq',#18,'Pset_ReinforcementBarPitchOfSlab',$,(#159));
#161=IFCPROPERTYSINGLEVALUE('PitchAngle',$,IFCPLANEANGLEMEASURE(0.),$);
#162=IFCPROPERTYSINGLEVALUE('IsExternal',$,IFCBOOLEAN(.F.),$);
#163=IFCPROPERTYSINGLEVALUE('LoadBearing',$,IFCBOOLEAN(.T.),$);
#164=IFCPROPERTYSET('1GeoPXn9zaT6niES$8bgJM',#18,'Pset_SlabCommon',$,(#157,#161,#162,#163));
#165=IFCRELDEFINESBYPROPERTIES('3kEfvRV4Yb1XXuB5SUra4x',#18,$,$,(#60),#158);
#166=IFCRELDEFINESBYPROPERTIES('1xuMuBSOx9LyLm6eNfsZ_B',#18,$,$,(#60),#160);
#167=IFCRELDEFINESBYPROPERTIES('0rZfdCM8buM1Zpb_1dW43c',#18,$,$,(#60),#164);
#168=IFCQUANTITYLENGTH('Width','',$,7600.0000000000109,$);
#169=IFCQUANTITYLENGTH('Length','',$,2796.7385936714641,$);
#170=IFCQUANTITYLENGTH('Depth','',$,75.,$);
#171=IFCQUANTITYLENGTH('Perimeter','',$,68.22006951228002,$);
#172=IFCQUANTITYAREA('GrossArea','',$,21.255213311903155,$);
#173=IFCQUANTITYAREA('NetArea','',$,21.255213311903155,$);
#174=IFCQUANTITYVOLUME('GrossVolume','',$,1.5941409983927366,$);
#175=IFCQUANTITYVOLUME('NetVolume','',$,9.9899502565944829,$);
#176=IFCELEMENTQUANTITY('2N6c3lxiqN036xL8$LnsSh',#18,'Qto_SlabBaseQuantities',$,$,(#151,#152,#153,#154,#155,#156,#169,#170,#171,#172,#173,#174,#175));
#177=IFCRELDEFINESBYPROPERTIES('00G_A3Z2Q2eeTvLzgDsbJv',#18,$,$,(#60),#176);
#178=IFCSIUNIT(*,.MASSUNIT.,.KILO.,.GRAM.);
#179=IFCDERIVEDUNITELEMENT(#178,1);
#180=IFCSIUNIT(*,.THERMODYNAMICTEMPERATUREUNIT.,$,.KELVIN.);
#181=IFCDERIVEDUNITELEMENT(#180,-1);
#182=IFCSIUNIT(*,.TIMEUNIT.,$,.SECOND.);
#183=IFCDERIVEDUNITELEMENT(#182,-3);
#184=IFCDERIVEDUNIT((#179,#181,#183),.THERMALTRANSMITTANCEUNIT.,$);
#185=IFCPROPERTYSINGLEVALUE('ThermalTransmittance',$,IFCTHERMALTRANSMITTANCEMEASURE(0.11743760826329636),$);
#186=IFCPROPERTYSET('2NrVHOjwmF6Qv_Sv8i23UT',#18,'Pset_SlabCommon',$,(#185));
#187=IFCAXIS2PLACEMENT3D(#3,$,$);
#189=IFCCARTESIANPOINTLIST2D(((-300.00000000000011,-224.99999999999946),(300.00000000000011,-224.99999999999946),(300.00000000000011,224.99999999999946),(-300.00000000000011,224.99999999999946),(-300.00000000000011,-224.99999999999946)));
#190=IFCINDEXEDPOLYCURVE(#189,$,.F.);
#191=IFCARBITRARYCLOSEDPROFILEDEF(.AREA.,'450x600mm',#190);
#192=IFCAXIS2PLACEMENT3D(#3,#9,#6);
#193=IFCEXTRUDEDAREASOLID(#191,#192,#9,3999.9999999999995);
#194=IFCSHAPEREPRESENTATION(#26,'Body','SweptSolid',(#193));
#195=IFCAXIS2PLACEMENT3D(#3,$,$);
#196=IFCREPRESENTATIONMAP(#195,#194);
#197=IFCCOLUMNTYPE('2d8M4lspbAtgpmI2Wz$F1A',#18,'Columns_Rectangular:450x600mm',$,$,$,(#196),'140623',$,.COLUMN.);
#198=IFCMATERIAL('<Unnamed>',$,$);
#199=IFCCARTESIANTRANSFORMATIONOPERATOR3D($,$,#3,1.,$);
#200=IFCMAPPEDITEM(#196,#199);
#201=IFCSHAPEREPRESENTATION(#26,'Body','MappedRepresentation',(#200));
#202=IFCPRODUCTDEFINITIONSHAPE($,$,(#201));
#203=IFCCARTESIANPOINT((26.263474892306586,1233.6835654631416,0.));
#204=IFCAXIS2PLACEMENT3D(#203,$,$);
#205=IFCLOCALPLACEMENT(#36,#204);
#206=IFCCOLUMN('2d8M4lspbAtgpmI2Wz$FAm',#18,'Columns_Rectangular:450x600mm:314546',$,'Columns_Rectangular:450x600mm',#205,#202,'314546',.COLUMN.);
#207=IFCQUANTITYLENGTH('Length',$,$,3999.9999999999995,$);
#208=IFCQUANTITYAREA('CrossSectionArea',$,$,0.26999999999999946,$);
#209=IFCQUANTITYAREA('OuterSurfaceArea',$,$,8.3999999999999932,$);
#210=IFCQUANTITYVOLUME('GrossVolume',$,$,1.0799999999999979,$);
#211=IFCQUANTITYVOLUME('NetVolume',$,$,1.0799999999999979,$);
#212=IFCELEMENTQUANTITY('02uF6UNr8Ivgl0Jdhqgg1f',#18,'Qto_ColumnBaseQuantities',$,$,(#207,#208,#209,#210,#211));
#213=IFCRELDEFINESBYPROPERTIES('0VdEERtFqVDYoN_aBZuGWY',#18,$,$,(#206),#212);
#214=IFCPROPERTYSINGLEVALUE('Reference',$,IFCIDENTIFIER('450x600mm'),$);
#215=IFCPROPERTYSET('2gw2PoDou9_H$KUG$CoVpP',#18,'Pset_ColumnCommon',$,(#162,#214));
#216=IFCPROPERTYSET('0WadmhjSOGvo02Mp8L53Q1',#18,'Pset_EnvironmentalImpactIndicators',$,(#214));
#217=IFCPROPERTYSINGLEVALUE('Reference',$,IFCLABEL('450x600mm'),$);
#218=IFCPROPERTYSET('09JyIbhMbaO4qW1WSUU1I7',#18,'Pset_ReinforcementBarPitchOfColumn',$,(#217));
#219=IFCRELDEFINESBYPROPERTIES('368zf2GnrlCPiLOdRhXBJA',#18,$,$,(#206),#215);
#220=IFCRELDEFINESBYPROPERTIES('3FAYgCYt18jqnLUW_gV_d$',#18,$,$,(#206),#216);
#221=IFCRELDEFINESBYPROPERTIES('0wjtCPAZQAIfuufNstNJlw',#18,$,$,(#206),#218);
#222=IFCCARTESIANPOINT((3826.263474892316,-11.316434536838358,0.));
#223=IFCAXIS2PLACEMENT3D(#222,#9,#6);
#224=IFCLOCALPLACEMENT(#36,#223);
#225=IFCCARTESIANPOINTLIST3D(((-3.6581190608800609E-014,0.,0.),(7600.0000000000109,0.,0.)));
#226=IFCINDEXEDPOLYCURVE(#225,$,.F.);
#227=IFCSHAPEREPRESENTATION(#25,'Axis','Curve3D',(#226));
#228=IFCPRODUCTDEFINITIONSHAPE($,$,(#227,#277));
#229=IFCCARTESIANPOINTLIST2D(((-2135.4962824297568,-3800.000000000005),(2135.4962824297568,-3800.0000000000064),(2135.4962824297568,3800.0000000000055),(-2135.4962824297568,3800.0000000000064),(-2135.4962824297568,-3800.000000000005)));
#230=IFCINDEXEDPOLYCURVE(#229,$,.F.);
#231=IFCCARTESIANPOINTLIST2D(((-25.496282429757358,1200.0000000000061),(-25.496282429757358,-609.99999999999545),(-1235.4962824297584,-609.99999999999545),(-1235.4962824297584,1200.0000000000061),(-25.496282429757358,1200.0000000000061)));
#232=IFCINDEXEDPOLYCURVE(#231,$,.F.);
#233=IFCARBITRARYPROFILEDEFWITHVOIDS(.AREA.,'Wall-Ext_102Bwk-75Ins-100LBlk-12P',#230,(#232));
#234=IFCCARTESIANPOINT((3800.,-132.49999999999997,2135.4962824297568));
#235=IFCAXIS2PLACEMENT3D(#234,#8,#9);
#236=IFCEXTRUDEDAREASOLID(#233,#235,#9,12.5);
#237=IFCCARTESIANPOINTLIST2D(((-2135.4962824297568,-3800.000000000005),(2135.4962824297568,-3800.0000000000064),(2135.4962824297568,3800.0000000000055),(-2135.4962824297568,3800.0000000000064),(-2135.4962824297568,-3800.000000000005)));
#238=IFCINDEXEDPOLYCURVE(#237,$,.F.);
#239=IFCCARTESIANPOINTLIST2D(((-25.496282429757358,1200.0000000000061),(-25.496282429757628,-609.99999999999545),(-1235.4962824297584,-609.99999999999545),(-1235.4962824297584,1200.0000000000061),(-25.496282429757358,1200.0000000000061)));
#240=IFCINDEXEDPOLYCURVE(#239,$,.F.);
#241=IFCARBITRARYPROFILEDEFWITHVOIDS(.AREA.,'Wall-Ext_102Bwk-75Ins-100LBlk-12P',#238,(#240));
#242=IFCCARTESIANPOINT((3800.,-32.499999999999986,2135.4962824297568));
#243=IFCAXIS2PLACEMENT3D(#242,#8,#9);
#244=IFCEXTRUDEDAREASOLID(#241,#243,#9,100.);
#245=IFCCARTESIANPOINTLIST2D(((-2135.4962824297568,-3800.000000000005),(2135.4962824297568,-3800.0000000000064),(2135.4962824297568,3800.0000000000055),(-2135.4962824297568,3800.0000000000064),(-2135.4962824297568,-3800.000000000005)));
#246=IFCINDEXEDPOLYCURVE(#245,$,.F.);
#247=IFCCARTESIANPOINTLIST2D(((-25.496282429757358,1200.0000000000061),(-25.496282429757358,-609.99999999999545),(-1235.4962824297584,-609.99999999999545),(-1235.4962824297584,1200.0000000000061),(-25.496282429757358,1200.0000000000061)));
#248=IFCINDEXEDPOLYCURVE(#247,$,.F.);
#249=IFCARBITRARYPROFILEDEFWITHVOIDS(.AREA.,'Wall-Ext_102Bwk-75Ins-100LBlk-12P',#246,(#248));
#250=IFCCARTESIANPOINT((3800.,42.5,2135.4962824297568));
#251=IFCAXIS2PLACEMENT3D(#250,#8,#9);
#252=IFCEXTRUDEDAREASOLID(#249,#251,#9,74.999999999999986);
#253=IFCCARTESIANPOINTLIST2D(((-3800.0000000000064,-2135.4962824297568),(3800.0000000000055,-2135.4962824297568),(3800.0000000000055,2135.4962824297568),(-3800.0000000000064,2135.4962824297568),(-3800.0000000000064,-2135.4962824297568)));
#254=IFCINDEXEDPOLYCURVE(#253,$,.F.);
#255=IFCCARTESIANPOINTLIST2D(((-1200.0000000000064,-25.496282429757358),(609.99999999999523,-25.496282429757358),(609.99999999999523,-1235.4962824297584),(-1200.0000000000064,-1235.4962824297584),(-1200.0000000000064,-25.496282429757358)));
#256=IFCINDEXEDPOLYCURVE(#255,$,.F.);
#257=IFCARBITRARYPROFILEDEFWITHVOIDS(.AREA.,'Wall-Ext_102Bwk-75Ins-100LBlk-12P',#254,(#256));
#258=IFCCARTESIANPOINT((3800.,145.,2135.4962824297568));
#259=IFCAXIS2PLACEMENT3D(#258,#8,#5);
#260=IFCEXTRUDEDAREASOLID(#257,#259,#9,102.5);
#261=IFCCOLOURRGB($,0.97647058823529409,0.97647058823529409,0.97647058823529409);
#262=IFCSURFACESTYLERENDERING(#261,0.,$,$,$,$,IFCNORMALISEDRATIOMEASURE(0.5),IFCSPECULAREXPONENT(128.),.NOTDEFINED.);
#263=IFCSURFACESTYLE('Plaster',.BOTH.,(#262));
#264=IFCSTYLEDITEM(#236,(#263),$);
#265=IFCCOLOURRGB($,0.70980392156862748,0.70980392156862748,0.70980392156862748);
#266=IFCSURFACESTYLERENDERING(#265,0.,$,$,$,$,IFCNORMALISEDRATIOMEASURE(0.5),IFCSPECULAREXPONENT(64.),.NOTDEFINED.);
#267=IFCSURFACESTYLE('Concrete Masonry Units _Low Density',.BOTH.,(#266));
#268=IFCSTYLEDITEM(#244,(#267),$);
#269=IFCCOLOURRGB($,0.49803921568627452,0.49803921568627452,0.49803921568627452);
#270=IFCSURFACESTYLERENDERING(#269,0.,$,$,$,$,IFCNORMALISEDRATIOMEASURE(0.5),IFCSPECULAREXPONENT(64.),.NOTDEFINED.);
#271=IFCSURFACESTYLE('Fiberglass Batt',.BOTH.,(#270));
#272=IFCSTYLEDITEM(#252,(#271),$);
#273=IFCCOLOURRGB($,0.66666666666666663,0.39215686274509803,0.41176470588235292);
#274=IFCSURFACESTYLERENDERING(#273,0.,$,$,$,$,IFCNORMALISEDRATIOMEASURE(0.5),IFCSPECULAREXPONENT(128.),.NOTDEFINED.);
#275=IFCSURFACESTYLE('Brick, Common',.BOTH.,(#274));
#276=IFCSTYLEDITEM(#260,(#275),$);
#277=IFCSHAPEREPRESENTATION(#26,'Body','SweptSolid',(#236,#244,#252,#260));
#278=IFCSHAPEREPRESENTATION(#26,'Body','SweptSolid',(#260));
#279=IFCSHAPEASPECT((#278),'Brick, Common',$,.U.,#228);
#280=IFCSHAPEREPRESENTATION(#26,'Body','SweptSolid',(#252));
#281=IFCSHAPEASPECT((#280),'Fiberglass Batt',$,.U.,#228);
#282=IFCSHAPEREPRESENTATION(#26,'Body','SweptSolid',(#244));
#283=IFCSHAPEASPECT((#282),'Concrete Masonry Units _Low Density',$,.U.,#228);
#284=IFCSHAPEREPRESENTATION(#26,'Body','SweptSolid',(#236));
#285=IFCSHAPEASPECT((#284),'Plaster',$,.U.,#228);
#286=IFCWALL('2d8M4lspbAtgpmI2Wz$F7h',#18,'Basic Wall:Wall-Ext_102Bwk-75Ins-100LBlk-12P:315369',$,'Basic Wall:Wall-Ext_102Bwk-75Ins-100LBlk-12P',#224,#228,'315369',.NOTDEFINED.);
#287=IFCMATERIAL('Brick, Common',$,'Masonry');
#288=IFCMATERIAL('Fiberglass Batt',$,'Generic');
#289=IFCMATERIAL('Concrete Masonry Units _Low Density',$,'Masonry');
#290=IFCMATERIAL('Plaster',$,'Generic');
#291=IFCMATERIALCONSTITUENT('Brick, Common',$,#287,0.35344827586206895,'Masonry');
#292=IFCQUANTITYLENGTH('Width',$,$,102.5,$);
#293=IFCMATERIALCONSTITUENT('Fiberglass Batt',$,#288,0.25862068965517243,'Generic');
#294=IFCQUANTITYLENGTH('Width',$,$,75.,$);
#295=IFCMATERIALCONSTITUENT('Concrete Masonry Units _Low Density',$,#289,0.34482758620689657,'Masonry');
#296=IFCQUANTITYLENGTH('Width',$,$,100.,$);
#297=IFCMATERIALCONSTITUENT('Plaster',$,#290,0.043103448275862072,'Generic');
#298=IFCQUANTITYLENGTH('Width',$,$,12.5,$);
#299=IFCMATERIALCONSTITUENTSET('Basic Wall:Wall-Ext_102Bwk-75Ins-100LBlk-12P',$,(#291,#293,#295,#297));
#300=IFCPHYSICALCOMPLEXQUANTITY('Brick, Common',$,(#292),'Layer',$,$);
#301=IFCPHYSICALCOMPLEXQUANTITY('Fiberglass Batt',$,(#294),'Layer',$,$);
#302=IFCPHYSICALCOMPLEXQUANTITY('Concrete Masonry Units _Low Density',$,(#296),'Layer',$,$);
#303=IFCPHYSICALCOMPLEXQUANTITY('Plaster',$,(#298),'Layer',$,$);
#304=IFCQUANTITYLENGTH('Width',$,$,290.,$);
#305=IFCQUANTITYLENGTH('Height',$,$,4270.9925648595135,$);
#306=IFCQUANTITYLENGTH('Length',$,$,7600.0000000000109,$);
#307=IFCQUANTITYVOLUME('GrossVolume',$,$,9.4132676129503814,$);
#308=IFCQUANTITYAREA('GrossSideArea',$,$,32.459543492932355,$);
#309=IFCQUANTITYAREA('NetSideArea',$,$,30.26944349293235,$);
#310=IFCQUANTITYVOLUME('NetVolume',$,$,8.7781386129503804,$);
#311=IFCELEMENTQUANTITY('05FrSY8KDgAuYl7ZnjwMu1',#18,'Qto_WallBaseQuantities',$,$,(#300,#301,#302,#303,#304,#305,#306,#307,#308,#309,#310));
#312=IFCRELDEFINESBYPROPERTIES('1MA0F3T0cKMbCGR9iTaX44',#18,$,$,(#286),#311);
#313=IFCWALLTYPE('2ru7YPT4T9MuTpOS4FRzxX',#18,'Basic Wall:Wall-Ext_102Bwk-75Ins-100LBlk-12P',$,$,(#326),$,'45419',$,.STANDARD.);
#314=IFCPROPERTYSINGLEVALUE('Reference',$,IFCIDENTIFIER('Wall-Ext_102Bwk-75Ins-100LBlk-12P'),$);
#315=IFCPROPERTYSET('18BQVzqxZ_66qj542jPfHv',#18,'Pset_EnvironmentalImpactIndicators',$,(#314));
#316=IFCPROPERTYSINGLEVALUE('Reference',$,IFCLABEL('Wall-Ext_102Bwk-75Ins-100LBlk-12P'),$);
#317=IFCPROPERTYSET('1PS5Z_NFt$oB5B7tHOzDY$',#18,'Pset_ReinforcementBarPitchOfWall',$,(#316));
#318=IFCPROPERTYSINGLEVALUE('IsExternal',$,IFCBOOLEAN(.T.),$);
#319=IFCPROPERTYSINGLEVALUE('LoadBearing',$,IFCBOOLEAN(.F.),$);
#320=IFCPROPERTYSINGLEVALUE('ExtendToStructure',$,IFCBOOLEAN(.F.),$);
#321=IFCPROPERTYSET('0BdkpQGGH2rym8YZHYVaEt',#18,'Pset_WallCommon',$,(#314,#318,#319,#320));
#322=IFCRELDEFINESBYPROPERTIES('0g3Wju6Oym4lXowmSelwIz',#18,$,$,(#286),#315);
#323=IFCRELDEFINESBYPROPERTIES('01MZA9FclNWeqUa7HIIP2p',#18,$,$,(#286),#317);
#324=IFCRELDEFINESBYPROPERTIES('1qpOMAoUr5Wcfe6bym_0vv',#18,$,$,(#286),#321);
#325=IFCPROPERTYSINGLEVALUE('ThermalTransmittance',$,IFCTHERMALTRANSMITTANCEMEASURE(0.23592605993668123),$);
#326=IFCPROPERTYSET('3orq6BN_LwRCX23Dley2E6',#18,'Pset_WallCommon',$,(#325));
#327=IFCCOLOURRGBLIST(((0.97647058823529409,0.97647058823529409,0.97647058823529409)));
#328=IFCINDEXEDPOLYGONALFACE((1,2,3,4,5,6,7,8));
#329=IFCINDEXEDPOLYGONALFACE((9,10,11,12,13,14,15,16));
#330=IFCINDEXEDPOLYGONALFACE((2,1,9,16));
#331=IFCINDEXEDPOLYGONALFACE((3,2,16,15));
#332=IFCINDEXEDPOLYGONALFACE((4,3,15,14));
#333=IFCINDEXEDPOLYGONALFACE((5,4,14,13));
#334=IFCINDEXEDPOLYGONALFACE((6,5,13,12));
#335=IFCINDEXEDPOLYGONALFACE((7,6,12,11));
#336=IFCINDEXEDPOLYGONALFACE((8,7,11,10));
#337=IFCINDEXEDPOLYGONALFACE((1,8,10,9));
#338=IFCCARTESIANPOINTLIST3D(((-24.999999999997566,-24.999999999997108,0.),(-24.999999999997566,-1.6919798895287386E-014,0.),(1.3535839116229909E-013,-1.6919798895287386E-014,0.),(4.060751734868973E-013,157.00000000098518,0.),(1810.0000000000043,157.00000000098518,-2.7071678232459818E-013),(1810.0000000000043,-1.6919798895287386E-014,-2.7071678232459818E-013),(1835.0000000000002,-1.6919798895287386E-014,-2.7071678232459818E-013),(1835.0000000000002,-24.999999999997108,-2.7071678232459818E-013),(-24.999999999997566,-24.999999999997108,25.),(1835.0000000000002,-24.999999999997108,24.99999999999973),(1835.0000000000002,-1.6919798895287386E-014,24.99999999999973),(1810.0000000000043,-1.6919798895287386E-014,24.99999999999973),(1810.0000000000043,157.00000000098518,24.99999999999973),(4.060751734868973E-013,157.00000000098518,25.),(1.3535839116229909E-013,-1.6919798895287386E-014,25.),(-24.999999999997566,-1.6919798895287386E-014,25.)));
#339=IFCPOLYGONALFACESET(#338,.T.,(#328,#329,#330,#331,#332,#333,#334,#335,#336,#337),$);
#340=IFCINDEXEDCOLOURMAP(#339,1.,#327,(1,1,1,1,1,1,1,1,1,1));
#341=IFCCOLOURRGB($,0.97647058823529409,0.97647058823529409,0.97647058823529409);
#342=IFCSURFACESTYLERENDERING(#341,0.,$,$,$,$,IFCNORMALISEDRATIOMEASURE(0.5),IFCSPECULAREXPONENT(128.),.NOTDEFINED.);
#343=IFCSURFACESTYLE('Window Frame',.BOTH.,(#342));
#344=IFCSTYLEDITEM(#339,(#343),$);
#345=IFCCOLOURRGBLIST(((0.97647058823529409,0.97647058823529409,0.97647058823529409)));
#346=IFCINDEXEDPOLYGONALFACEWITHVOIDS((1,2,3,4),((5,6,7,8)));
#347=IFCINDEXEDPOLYGONALFACE((1,4,9,10,11,12,13,14));
#348=IFCINDEXEDPOLYGONALFACEWITHVOIDS((10,9,15,16),((17,18,19,20)));
#349=IFCINDEXEDPOLYGONALFACE((18,17,21,22));
#350=IFCINDEXEDPOLYGONALFACEWITHVOIDS((21,27,28,22),((23,24,25,26)));
#351=IFCINDEXEDPOLYGONALFACE((23,5,8,24));
#352=IFCINDEXEDPOLYGONALFACE((4,3,15,9));
#353=IFCINDEXEDPOLYGONALFACE((17,20,27,21));
#354=IFCINDEXEDPOLYGONALFACE((6,5,23,26));
#355=IFCINDEXEDPOLYGONALFACE((16,15,3,2,29,30,31,32));
#356=IFCINDEXEDPOLYGONALFACE((20,19,28,27));
#357=IFCINDEXEDPOLYGONALFACE((6,26,25,7));
#358=IFCINDEXEDPOLYGONALFACE((29,2,1,14));
#359=IFCINDEXEDPOLYGONALFACE((30,29,14,13));
#360=IFCINDEXEDPOLYGONALFACE((31,30,13,12));
#361=IFCINDEXEDPOLYGONALFACE((32,31,12,11));
#362=IFCINDEXEDPOLYGONALFACE((16,32,11,10));
#363=IFCINDEXEDPOLYGONALFACE((22,28,19,18));
#364=IFCINDEXEDPOLYGONALFACE((8,7,25,24));
#365=IFCCARTESIANPOINTLIST3D(((5.4143356464919636E-013,157.00000000095986,-1.3535839116229909E-013),(1810.0000000000011,157.0000000009598,-1.3535839116229909E-013),(1810.0000000000016,157.00000000095577,1210.0000000000134),(9.4750873813609356E-013,157.00000000096162,1210.0000000000134),(60.000000000002736,157.00000000096142,1150.0000000000111),(1749.9999999999995,157.00000000095594,1150.0000000000116),(1749.9999999999995,157.00000000095594,75.000000000001222),(60.000000000002601,157.00000000096142,75.000000000001222),(1.0828671292983927E-012,240.00000000096279,1210.0000000000134),(5.4143356464919636E-013,240.00000000096185,51.000000000001265),(6.7679195581149543E-013,255.00000000337735,49.687670047114281),(6.7679195581149543E-013,255.00000000337735,44.744967610263494),(9.4750873813609356E-013,327.50000000095997,33.808884669518932),(9.4750873813609356E-013,327.50000000095997,-1.3535839116229909E-013),(1810.0000000000016,240.00000000095676,1210.0000000000134),(1810.0000000000011,240.00000000095773,51.000000000001265),(40.000000000005663,240.00000000096267,1170.0000000000086),(40.000000000005663,240.00000000096173,63.000000000000163),(1769.9999999999973,240.00000000095798,63.000000000002466),(1769.9999999999973,240.00000000095707,1170.0000000000086),(40.000000000005528,175.00000000096338,1170.0000000000086),(40.000000000005528,175.00000000096338,63.000000000000163),(60.000000000002736,175.00000000096333,1150.0000000000111),(60.000000000002736,175.00000000096333,75.000000000001222),(1749.9999999999995,175.00000000095787,75.000000000001222),(1750.0000000000002,175.00000000095787,1150.0000000000116),(1769.9999999999973,175.00000000095764,1170.0000000000086),(1769.9999999999973,175.00000000095764,63.000000000002466),(1810.0000000000016,327.50000000095991,-1.3535839116229909E-013),(1810.0000000000016,327.50000000095997,33.808884669518932),(1810.0000000000016,255.00000000337729,44.744967610263494),(1810.0000000000016,255.00000000337729,49.687670047114281)));
#366=IFCPOLYGONALFACESET(#365,.T.,(#346,#347,#348,#349,#350,#351,#352,#353,#354,#355,#356,#357,#358,#359,#360,#361,#362,#363,#364),$);
#367=IFCINDEXEDCOLOURMAP(#366,1.,#345,(1,1,1,1,1,1,1,1,1,1,1,1,1,1,1,1,1,1,1));
#368=IFCSTYLEDITEM(#366,(#343),$);
#369=IFCCOLOURRGBLIST(((0.,0.50196078431372548,0.75294117647058822)));
#370=IFCINDEXEDPOLYGONALFACE((1,2,3,4));
#371=IFCINDEXEDPOLYGONALFACE((5,6,7,8));
#372=IFCINDEXEDPOLYGONALFACE((2,1,5,8));
#373=IFCINDEXEDPOLYGONALFACE((3,2,8,7));
#374=IFCINDEXEDPOLYGONALFACE((4,3,7,6));
#375=IFCINDEXEDPOLYGONALFACE((1,4,6,5));
#376=IFCCARTESIANPOINTLIST3D(((69.999999999999247,204.00000000095872,93.00000000001026),(1739.9999999999932,204.00000000095324,93.000000000010132),(1739.9999999999936,204.00000000095338,1140.000000000013),(69.999999999999389,204.00000000095881,1140.0000000000134),(69.999999999999389,228.00000000095869,93.00000000001026),(69.999999999999659,228.00000000095883,1140.0000000000134),(1739.9999999999936,228.00000000095335,1140.000000000013),(1739.9999999999936,228.00000000095326,93.000000000010132)));
#377=IFCPOLYGONALFACESET(#376,.T.,(#370,#371,#372,#373,#374,#375),$);
#378=IFCINDEXEDCOLOURMAP(#377,0.10000000000000001,#369,(1,1,1,1,1,1));
#379=IFCCOLOURRGB($,0.,0.50196078431372548,0.75294117647058822);
#380=IFCSURFACESTYLERENDERING(#379,0.90000000000000002,$,$,$,$,IFCNORMALISEDRATIOMEASURE(0.5),IFCSPECULAREXPONENT(12.),.NOTDEFINED.);
#381=IFCSURFACESTYLE('Glass',.BOTH.,(#380));
#382=IFCSTYLEDITEM(#377,(#381),$);
#383=IFCCOLOURRGBLIST(((0.97647058823529409,0.97647058823529409,0.97647058823529409)));
#384=IFCINDEXEDPOLYGONALFACE((1,2,3,4));
#385=IFCINDEXEDPOLYGONALFACE((5,6,7,8));
#386=IFCINDEXEDPOLYGONALFACE((9,10,11,12));
#387=IFCINDEXEDPOLYGONALFACE((13,9,12,14));
#388=IFCINDEXEDPOLYGONALFACE((15,16,17,18));
#389=IFCINDEXEDPOLYGONALFACE((19,20,21,22));
#390=IFCINDEXEDPOLYGONALFACE((23,19,22,24));
#391=IFCINDEXEDPOLYGONALFACE((2,25,26,3));
#392=IFCINDEXEDPOLYGONALFACE((4,3,27,28));
#393=IFCINDEXEDPOLYGONALFACE((8,7,29,30));
#394=IFCINDEXEDPOLYGONALFACE((12,11,31,32));
#395=IFCINDEXEDPOLYGONALFACE((14,12,32,33));
#396=IFCINDEXEDPOLYGONALFACE((18,17,34,35));
#397=IFCINDEXEDPOLYGONALFACE((22,21,36,37));
#398=IFCINDEXEDPOLYGONALFACE((24,22,37,38));
#399=IFCINDEXEDPOLYGONALFACE((3,26,39,27));
#400=IFCINDEXEDPOLYGONALFACE((28,27,40,41));
#401=IFCINDEXEDPOLYGONALFACE((30,29,42,43));
#402=IFCINDEXEDPOLYGONALFACE((32,31,44,45));
#403=IFCINDEXEDPOLYGONALFACE((33,32,45,46));
#404=IFCINDEXEDPOLYGONALFACE((35,34,47,48));
#405=IFCINDEXEDPOLYGONALFACE((37,36,49,50));
#406=IFCINDEXEDPOLYGONALFACE((38,37,50,51));
#407=IFCINDEXEDPOLYGONALFACE((27,39,52,40));
#408=IFCINDEXEDPOLYGONALFACE((41,40,2,1));
#409=IFCINDEXEDPOLYGONALFACEWITHVOIDS((4,28,41,1),((6,42,29,7)));
#410=IFCINDEXEDPOLYGONALFACE((43,42,6,5));
#411=IFCINDEXEDPOLYGONALFACEWITHVOIDS((8,30,43,5),((10,44,31,11)));
#412=IFCINDEXEDPOLYGONALFACE((45,44,10,9));
#413=IFCINDEXEDPOLYGONALFACE((46,45,9,13));
#414=IFCINDEXEDPOLYGONALFACEWITHVOIDS((16,47,34,17),((14,33,46,13)));
#415=IFCINDEXEDPOLYGONALFACE((48,47,16,15));
#416=IFCINDEXEDPOLYGONALFACEWITHVOIDS((18,35,48,15),((20,49,36,21)));
#417=IFCINDEXEDPOLYGONALFACE((50,49,20,19));
#418=IFCINDEXEDPOLYGONALFACE((51,50,19,23));
#419=IFCINDEXEDPOLYGONALFACEWITHVOIDS((25,52,39,26),((24,38,51,23)));
#420=IFCINDEXEDPOLYGONALFACE((40,52,25,2));
#421=IFCCARTESIANPOINTLIST3D(((30.000000000000625,240.00000000096347,1180.0000000000086),(30.00000000000076,245.77350269285472,1180.0000000000086),(30.00000000000076,245.77350269285472,53.000000000006764),(30.00000000000076,240.00000000096341,53.000000000006764),(40.000000000002821,175.0000000009627,1170.0000000000061),(40.000000000003226,240.00000000096347,1170.0000000000066),(40.000000000003226,240.00000000096347,63.00000000000923),(40.000000000002956,175.00000000096284,63.00000000000923),(79.999999999991417,189.49289985000593,1130.000000000018),(69.851962275172141,175.00000000096261,1140.1480377248372),(69.851962275172141,175.00000000096264,92.85196227517855),(79.999999999991417,189.49289985000598,102.99999999999784),(79.999999999991559,204.00000000095881,1130.0000000000177),(79.999999999991559,204.00000000095872,102.99999999999797),(70.000000000003709,228.00000000095883,1140.0000000000057),(70.000000000003709,204.00000000095881,1140.0000000000057),(70.000000000003709,204.00000000095881,93.00000000000999),(70.000000000003709,228.00000000095875,93.00000000000999),(79.999999999991701,245.77350269285463,1130.0000000000177),(79.999999999991559,228.00000000095878,1130.0000000000177),(79.999999999991559,228.00000000095878,102.9999999999977),(79.999999999991701,245.77350269285463,102.99999999999784),(62.554245195483084,251.5470053847468,1147.4457548045266),(62.554245195483084,251.54700538474691,85.554245195489088),(40.784609690827274,251.54700538474688,1169.2153903091826),(40.784609690827274,251.54700538474691,63.784609690833278),(1779.999999999995,245.77350269284901,53.000000000007169),(1779.999999999995,240.00000000095764,53.000000000007169),(1769.999999999993,240.00000000095778,63.0000000000095),(1769.9999999999923,175.00000000095716,63.000000000009365),(1740.1480377248231,175.00000000095719,92.851962275178693),(1730.0000000000041,189.49289985000053,102.99999999999784),(1730.0000000000041,204.00000000095332,102.99999999999797),(1739.999999999992,204.00000000095338,93.000000000010132),(1739.999999999992,228.00000000095326,93.000000000010132),(1730.0000000000041,228.00000000095338,102.99999999999797),(1730.0000000000041,245.77350269284921,102.99999999999797),(1747.4457548045132,251.54700538474137,85.55424519548923),(1769.2153903091689,251.54700538474123,63.784609690833413),(1779.9999999999952,245.77350269284895,1180.0000000000082),(1779.999999999995,240.00000000095775,1180.0000000000086),(1769.999999999993,240.00000000095778,1170.0000000000061),(1769.9999999999923,175.00000000095702,1170.0000000000061),(1740.1480377248231,175.00000000095716,1140.1480377248367),(1730.0000000000041,189.4928998500005,1130.0000000000177),(1730.0000000000041,204.00000000095338,1130.0000000000177),(1739.999999999992,204.00000000095338,1140.0000000000055),(1739.999999999992,228.00000000095335,1140.0000000000055),(1730.0000000000041,228.00000000095338,1130.0000000000175),(1730.0000000000041,245.77350269284923,1130.0000000000175),(1747.4457548045132,251.54700538474128,1147.4457548045266),(1769.2153903091689,251.54700538474117,1169.2153903091826)));
#422=IFCPOLYGONALFACESET(#421,.T.,(#384,#385,#386,#387,#388,#389,#390,#391,#392,#393,#394,#395,#396,#397,#398,#399,#400,#401,#402,#403,#404,#405,#406,#407,#408,#409,#410,#411,#412,#413,#414,#415,#416,#417,#418,#419,#420),$);
#423=IFCINDEXEDCOLOURMAP(#422,1.,#383,(1,1,1,1,1,1,1,1,1,1,1,1,1,1,1,1,1,1,1,1,1,1,1,1,1,1,1,1,1,1,1,1,1,1,1,1,1));
#424=IFCSTYLEDITEM(#422,(#343),$);
#425=IFCSHAPEREPRESENTATION(#26,'Body','Tessellation',(#339,#366,#377,#422));
#426=IFCAXIS2PLACEMENT3D(#3,$,$);
#427=IFCREPRESENTATIONMAP(#426,#425);
#428=IFCWINDOWLININGPROPERTIES('2d8M4lspbAtgpmI2az$E$R',#18,'Windows_Sgl_Plain:1810x1210mm:315865',$,$,$,$,$,$,$,$,$,$,$,$,$);
#429=IFCWINDOWTYPE('1XrzsT7QSiEexvnnKcLc7v',#18,'Windows_Sgl_Plain:1810x1210mm',$,$,(#428,#463,#465),(#427),'248058',$,.WINDOW.,.NOTDEFINED.,$,$);
#430=IFCMATERIAL('Window Frame',$,'Miscellaneous');
#431=IFCMATERIAL('Glass',$,'Glass');
#432=IFCMATERIALCONSTITUENT('Trim',$,#430,0.36235838472242543,'Miscellaneous');
#433=IFCSHAPEREPRESENTATION(#26,'Body','Tessellation',(#339));
#434=IFCSHAPEASPECT((#433),'Trim',$,.U.,#427);
#435=IFCMATERIALCONSTITUENT('Frame/Mullion',$,#430,0.36235838472242543,'Miscellaneous');
#436=IFCSHAPEREPRESENTATION(#26,'Body','Tessellation',(#366,#422));
#437=IFCSHAPEASPECT((#436),'Frame/Mullion',$,.U.,#427);
#438=IFCMATERIALCONSTITUENT('Glass',$,#431,0.27528323055514919,'Glass');
#439=IFCSHAPEREPRESENTATION(#26,'Body','Tessellation',(#377));
#440=IFCSHAPEASPECT((#439),'Glass',$,.U.,#427);
#441=IFCMATERIALCONSTITUENTSET($,$,(#432,#435,#438));
#442=IFCMAPPEDITEM(#427,#199);
#443=IFCSHAPEREPRESENTATION(#26,'Body','MappedRepresentation',(#442));
#444=IFCPRODUCTDEFINITIONSHAPE($,$,(#443));
#445=IFCCARTESIANPOINT((1226.2634748923167,133.68356546317005,900.));
#446=IFCAXIS2PLACEMENT3D(#445,#9,#6);
#448=IFCWINDOW('2d8M4lspbAtgpmI2Wz$E$R',#18,'Windows_Sgl_Plain:1810x1210mm:315865',$,'Windows_Sgl_Plain:1810x1210mm',#518,#444,'315865',1210.0000000000009,1810.0000000000016,.WINDOW.,.NOTDEFINED.,$);
#449=IFCMATERIALCONSTITUENT('Window Frame',$,#430,0.56625988234308811,'Miscellaneous');
#450=IFCMATERIALCONSTITUENT('Glass',$,#431,0.43374011765691189,'Glass');
#451=IFCMATERIALCONSTITUENTSET($,$,(#449,#450));
#452=IFCPROPERTYSINGLEVALUE('Reference',$,IFCIDENTIFIER('1810x1210mm'),$);
#453=IFCPROPERTYSET('3dzcrPM3xOCJhL2j8r2DGY',#18,'Pset_EnvironmentalImpactIndicators',$,(#452));
#454=IFCPROPERTYSET('0zyjQdxNkH_P5VrJKP6IiI',#18,'Pset_WindowCommon',$,(#318,#452));
#455=IFCRELDEFINESBYPROPERTIES('0fH9YFc_f4BXxgzuKSe7KN',#18,$,$,(#448),#453);
#456=IFCRELDEFINESBYPROPERTIES('33YxcaFrU5rIXOsiYQqPSP',#18,$,$,(#448),#454);
#457=IFCQUANTITYLENGTH('Width','',$,1810.,$);
#458=IFCQUANTITYLENGTH('Height','',$,1210.,$);
#459=IFCQUANTITYAREA('Area','',$,2.1900999999999997,$);
#460=IFCELEMENTQUANTITY('0N8W6CwUuD9bDS4SdbxrMe',#18,'Qto_WindowBaseQuantities',$,$,(#457,#458,#459));
#461=IFCRELDEFINESBYPROPERTIES('2vJqYgwtyb3eYWdDomoD7j',#18,$,$,(#448),#460);
#462=IFCPROPERTYSINGLEVALUE('Manufacturer',$,IFCLABEL('Revit'),$);
#463=IFCPROPERTYSET('3tgt8OV7OW6wbXSAUbKxuz',#18,'Pset_ManufacturerTypeInformation',$,(#462));
#464=IFCPROPERTYSINGLEVALUE('ThermalTransmittance',$,IFCTHERMALTRANSMITTANCEMEASURE(5.5617000000000001),$);
#465=IFCPROPERTYSET('32gwdWQAS4JXANQWnxTv0Q',#18,'Pset_WindowCommon',$,(#464));
#466=IFCPROPERTYSINGLEVALUE('Reference',$,IFCIDENTIFIER('Circle Head - Project Datum'),$);
#467=IFCPROPERTYSINGLEVALUE('AboveGround',$,IFCLOGICAL(.U.),$);
#468=IFCPROPERTYSET('2QFFSloDKLdASEirlNrsWG',#18,'Pset_BuildingStoreyCommon',$,(#466,#467));
#469=IFCRELDEFINESBYPROPERTIES('24vWbHxUvnwTMhwrnGQFQP',#18,$,$,(#37),#468);
#470=IFCRELCONTAINEDINSPATIALSTRUCTURE('3Zu5Bv0LOHrPC10066FoQQ',#18,$,$,(#60,#206,#286,#448),#37);
#471=IFCPROPERTYSET('2y6jqut2mGsxPM5c1zUPr2',#18,'Pset_BuildingStoreyCommon',$,(#466,#467));
#472=IFCRELDEFINESBYPROPERTIES('03h9WtlPXy$ENv9AiS5UZC',#18,$,$,(#41),#471);
#473=IFCRELAGGREGATES('2YBewnrr694VzX_RFGFTGX',#18,$,$,#29,(#44));
#474=IFCRELAGGREGATES('1JaocP5MKBxelTxDOaDLAT',#18,$,$,#44,(#34));
#475=IFCRELAGGREGATES('2$1LAsj$T3CPRLiPj39tWH',#18,$,$,#34,(#37,#41));
#476=IFCPROPERTYSINGLEVALUE('NumberOfStoreys',$,IFCINTEGER(1),$);
#477=IFCPROPERTYSINGLEVALUE('IsLandmarked',$,IFCLOGICAL(.U.),$);
#478=IFCPROPERTYSET('3PT2wHCosoBAkXkLL2MGE8',#18,'Pset_BuildingCommon',$,(#45,#476,#477));
#479=IFCPROPERTYSET('1KlIL8RBfQZQS9zl6EuZ9J',#18,'Pset_BuildingElementProxyCommon',$,(#45,#162));
#480=IFCPROPERTYSET('1heCxQyklatoKzuacdMIzv',#18,'Pset_BuildingStoreyCommon',$,(#45,#467));
#481=IFCPROPERTYSET('2ke$i3$ZinM4v8ZnD4aMjE',#18,'Pset_BuildingSystemCommon',$,(#45));
#482=IFCRELDEFINESBYPROPERTIES('0XpLhTPvMkXOqDV4KGGTr9',#18,$,$,(#34),#478);
#483=IFCRELDEFINESBYPROPERTIES('27E1wCfKVnw6ovNYqKjsER',#18,$,$,(#34),#479);
#484=IFCRELDEFINESBYPROPERTIES('1f3tpsTxHzpa7_9lyg_sFs',#18,$,$,(#34),#480);
#485=IFCRELDEFINESBYPROPERTIES('2wnNrohms1hP5p7igL5pM6',#18,$,$,(#34),#481);
#486=IFCRELASSOCIATESMATERIAL('2LKJjVpZleUCAprDatFyqE',#18,$,$,(#429),#441);
#487=IFCRELASSOCIATESMATERIAL('3mpskIgMQsK7gOxtvALv0L',#18,$,$,(#448),#451);
#488=IFCRELASSOCIATESMATERIAL('256XFddDNvRtBm0o0QPkIg',#18,$,$,(#60,#126),#150);
#489=IFCRELASSOCIATESMATERIAL('3j3rrU6AE2W19613bBnvyj',#18,$,$,(#197,#206),#198);
#490=IFCRELASSOCIATESMATERIAL('1qVu2fC5a9tGtrEPo7s4mP',#18,$,$,(#286,#313),#299);
#491=IFCRELDEFINESBYTYPE('38B08YthVKLdXB2nMRbo0l',#18,$,$,(#60),#126);
#492=IFCRELDEFINESBYTYPE('0heodec63dfv3uFfY9svob',#18,$,$,(#206),#197);
#493=IFCRELDEFINESBYTYPE('0gcPovOn7QcR6iCsNwgUL8',#18,$,$,(#286),#313);
#494=IFCRELDEFINESBYTYPE('16jPivIKFdllVgcX2hjUYt',#18,$,$,(#448),#429);
#495=IFCPRESENTATIONLAYERASSIGNMENT('A-FLOR-____-OTLN',$,(#115,#116,#118,#120,#122,#124),$);
#496=IFCPRESENTATIONLAYERASSIGNMENT('A-COLS-____-OTLN',$,(#194,#201),$);
#497=IFCPRESENTATIONLAYERASSIGNMENT('A-WALL-____-OTLN',$,(#227,#277,#278,#280,#282,#284),$);
#498=IFCPRESENTATIONLAYERASSIGNMENT('A-GLAZ-____-OTLN',$,(#425,#433,#436,#439,#443),$);
#499=IFCCARTESIANPOINTLIST2D(((1210.0000000000009,0.),(1210.0000000000009,1810.0000000000016),(0.,1810.0000000000016),(0.,0.),(1210.0000000000009,0.)));
#500=IFCINDEXEDPOLYCURVE(#499,$,.F.);
#501=IFCARBITRARYCLOSEDPROFILEDEF(.AREA.,$,#500);
#502=IFCAXIS2PLACEMENT3D(#3,#7,#9);
#503=IFCEXTRUDEDAREASOLID(#501,#502,#9,290.);
#504=IFCSHAPEREPRESENTATION(#26,'Body','SweptSolid',(#503));
#505=IFCPRODUCTDEFINITIONSHAPE($,$,(#504));
#506=IFCCARTESIANPOINT((2600.,-145.,900.));
#507=IFCAXIS2PLACEMENT3D(#506,$,$);
#508=IFCLOCALPLACEMENT(#224,#507);
#509=IFCOPENINGELEMENT('25DfgJsfSyRFLqIq49NmW8',#18,'Windows_Sgl_Plain:1810x1210mm:315865:1',$,$,#508,#505,'315865',.OPENING.);
#510=IFCRELVOIDSELEMENT('2d8M4lspbAtgpmI3mz$E$R',#18,$,$,#286,#509);
#511=IFCQUANTITYLENGTH('Depth',$,$,290.,$);
#512=IFCQUANTITYLENGTH('Height',$,$,1210.0000000000009,$);
#513=IFCQUANTITYLENGTH('Width',$,$,1810.0000000000016,$);
#514=IFCELEMENTQUANTITY('2cMsbbTj1Un9321XB1GawZ',#18,'Qto_OpeningElementBaseQuantities',$,$,(#511,#512,#513));
#515=IFCRELDEFINESBYPROPERTIES('1L3e76dlFC04Pm_cfpozlu',#18,$,$,(#509),#514);
#516=IFCRELFILLSELEMENT('0xY5iwZFxst$M0uD4cLu2X',#18,$,$,#509,#448);
#517=IFCAXIS2PLACEMENT3D(#3,$,$);
#518=IFCLOCALPLACEMENT(#508,#517);
#519=IFCUNITASSIGNMENT((#19,#20,#21,#70,#184));
ENDSEC;

END-ISO-10303-21;