ISO-10303-21;
HEADER;
FILE_DESCRIPTION(('ViewDefinition [ReferenceView_V1.2]','RevitIdentifiers [ContentGUID: 278ba6b0-79b4-4464-b501-e6c5a87694ab, VersionGUID: d71a07ab-4b40-4b16-839d-30d2dc0a21c3, NumberOfSaves: 1]','CoordinateReference [CoordinateBase: Shared Coordinates]','ExchangeRequirement [Architecture]'),'2;1');
FILE_NAME('02_two_walls.ifc','2026-05-12T15:18:32+01:00',(''),(''),'ODA SDAI 24.12','Autodesk Revit 25.4.50.35 (ENG) - IFC 25.4.50.35','');
FILE_SCHEMA(('IFC4'));
ENDSEC;

DATA;
#1=IFCORGANIZATION($,'Autodesk Revit 2025 (ENG)',$,$,$);
#2=IFCAPPLICATION(#1,'2025','Autodesk Revit 2025 (ENG)','Revit');
#3=IFCCARTESIANPOINT((0.,0.,0.));
#4=IFCCARTESIANPOINT((0.,0.));
#5=IFCDIRECTION((1.,0.,0.));
#6=IFCDIRECTION((-1.,0.,0.));
#7=IFCDIRECTION((0.,1.,0.));
#8=IFCDIRECTION((0.,-1.,0.));
#9=IFCDIRECTION((0.,0.,1.));
#10=IFCDIRECTION((0.,0.,-1.));
#11=IFCDIRECTION((1.,0.));
#12=IFCDIRECTION((-1.,0.));
#13=IFCDIRECTION((0.,1.));
#14=IFCDIRECTION((0.,-1.));
#15=IFCPERSON($,'','peiling.song',$,$,$,$,$);
#16=IFCORGANIZATION($,'','',$,$);
#17=IFCPERSONANDORGANIZATION(#15,#16,$);
#18=IFCOWNERHISTORY(#17,#2,$,.NOCHANGE.,$,$,$,1778591820);
#19=IFCSIUNIT(*,.LENGTHUNIT.,.MILLI.,.METRE.);
#20=IFCSIUNIT(*,.AREAUNIT.,$,.SQUARE_METRE.);
#21=IFCSIUNIT(*,.VOLUMEUNIT.,$,.CUBIC_METRE.);
#22=IFCAXIS2PLACEMENT3D(#3,$,$);
#23=IFCDIRECTION((6.123233995736766E-017,1.));
#24=IFCGEOMETRICREPRESENTATIONCONTEXT($,'Model',3,0.01,#22,#23);
#25=IFCGEOMETRICREPRESENTATIONSUBCONTEXT('Axis','Model',*,*,*,*,#24,$,.GRAPH_VIEW.,$);
#26=IFCGEOMETRICREPRESENTATIONSUBCONTEXT('Body','Model',*,*,*,*,#24,$,.MODEL_VIEW.,$);
#27=IFCGEOMETRICREPRESENTATIONSUBCONTEXT('Box','Model',*,*,*,*,#24,$,.MODEL_VIEW.,$);
#28=IFCGEOMETRICREPRESENTATIONSUBCONTEXT('FootPrint','Model',*,*,*,*,#24,$,.MODEL_VIEW.,$);
#29=IFCPROJECT('0dYwQmURH4PBK1viLNYMjR',#18,'Project Number',$,$,'Project Name','Project Status',(#24),#240);
#30=IFCCLASSIFICATION('CSI (Construction Specifications Institute)','1998',$,'Uniformat','UniFormat Classification','https://www.csiresources.org/standards/uniformat',$);
#31=IFCAXIS2PLACEMENT3D(#3,$,$);
#32=IFCLOCALPLACEMENT(#43,#31);
#33=IFCPOSTALADDRESS($,$,$,$,('Enter address here'),$,'London','London','','United Kingdom');
#34=IFCBUILDING('0dYwQmURH4PBK1viLNYMjQ',#18,'',$,$,#32,$,'',.ELEMENT.,$,$,#33);
#35=IFCAXIS2PLACEMENT3D(#3,$,$);
#36=IFCLOCALPLACEMENT(#32,#35);
#37=IFCBUILDINGSTOREY('3Zu5Bv0LOHrPC10026FoQQ',#18,'Level 0',$,'Level:Circle Head - Project Datum',#36,$,'Level 0',.ELEMENT.,0.);
#38=IFCCARTESIANPOINT((0.,0.,4000.));
#39=IFCAXIS2PLACEMENT3D(#38,$,$);
#40=IFCLOCALPLACEMENT(#32,#39);
#41=IFCBUILDINGSTOREY('15Z0v90RiHrPC20026FoKR',#18,'Level 1',$,'Level:Circle Head - Project Datum',#40,$,'Level 1',.ELEMENT.,3999.9999999999995);
#42=IFCAXIS2PLACEMENT3D(#3,$,$);
#43=IFCLOCALPLACEMENT($,#42);
#44=IFCSITE('0dYwQmURH4PBK1viLNYMjP',#18,'Default',$,$,#43,$,$,.ELEMENT.,(51,30,23,112487),(0,-7,-37,-956022),0.,$,$);
#45=IFCPROPERTYSINGLEVALUE('Reference',$,IFCIDENTIFIER('Project Information'),$);
#46=IFCPROPERTYSET('2$OqovXcHDNJp4MhZ489u5',#18,'Pset_SiteCommon',$,(#45));
#47=IFCRELDEFINESBYPROPERTIES('0O$SibHcRmi_tfXrP3Abtg',#18,$,$,(#44),#46);
#48=IFCCARTESIANPOINT((-6034.4184593230775,858.71949789206428,0.));
#49=IFCAXIS2PLACEMENT3D(#48,$,$);
#50=IFCLOCALPLACEMENT(#36,#49);
#51=IFCCARTESIANPOINTLIST3D(((4.6922521619055958E-013,0.,0.),(11145.000000000005,0.,0.)));
#52=IFCINDEXEDPOLYCURVE(#51,$,.F.);
#53=IFCSHAPEREPRESENTATION(#25,'Axis','Curve3D',(#52));
#54=IFCPRODUCTDEFINITIONSHAPE($,$,(#53,#99));
#55=IFCCARTESIANPOINTLIST2D(((4337.0000000000009,-5.0000000000140234),(4349.5,-5.0000000000140234),(4349.4999999999991,7.4999999999859774),(-6518.0000000000009,7.5000000000211706),(-6518.0000000000009,-4.9999999999788303),(4337.0000000000009,-5.0000000000140234)));
#56=IFCINDEXEDPOLYCURVE(#55,$,.F.);
#57=IFCARBITRARYCLOSEDPROFILEDEF(.AREA.,'Wall-Ext_102Bwk-75Ins-100LBlk-12P',#56);
#58=IFCCARTESIANPOINT((6518.,-140.,0.));
#59=IFCAXIS2PLACEMENT3D(#58,$,$);
#60=IFCEXTRUDEDAREASOLID(#57,#59,#9,7999.9999999999991);
#61=IFCSIUNIT(*,.PLANEANGLEUNIT.,$,.RADIAN.);
#62=IFCDIMENSIONALEXPONENTS(0,0,0,0,0,0,0);
#63=IFCMEASUREWITHUNIT(IFCPLANEANGLEMEASURE(0.017453292519943278),#61);
#64=IFCCONVERSIONBASEDUNIT(#62,.PLANEANGLEUNIT.,'DEGREE',#63);
#65=IFCCARTESIANPOINTLIST2D(((-5483.7500000000009,-49.999999999982137),(5483.7500000000009,-50.000000000017735),(5483.7500000000018,49.999999999982272),(-5483.7500000000009,50.00000000001787),(-5483.7500000000009,-49.999999999982137)));
#66=IFCINDEXEDPOLYCURVE(#65,$,.F.);
#67=IFCARBITRARYCLOSEDPROFILEDEF(.AREA.,'Wall-Ext_102Bwk-75Ins-100LBlk-12P',#66);
#68=IFCCARTESIANPOINT((5483.7500000000027,-82.500000000000057,0.));
#69=IFCAXIS2PLACEMENT3D(#68,$,$);
#70=IFCEXTRUDEDAREASOLID(#67,#69,#9,7999.9999999999991);
#71=IFCCARTESIANPOINTLIST2D(((-5521.2500000000009,-37.499999999982137),(5521.2500000000009,-37.500000000018005),(5521.25,37.499999999982002),(-5521.25,37.500000000017735),(-5521.2500000000009,-37.499999999982137)));
#72=IFCINDEXEDPOLYCURVE(#71,$,.F.);
#73=IFCARBITRARYCLOSEDPROFILEDEF(.AREA.,'Wall-Ext_102Bwk-75Ins-100LBlk-12P',#72);
#74=IFCCARTESIANPOINT((5521.2500000000018,5.,0.));
#75=IFCAXIS2PLACEMENT3D(#74,$,$);
#76=IFCEXTRUDEDAREASOLID(#73,#75,#9,7999.9999999999991);
#77=IFCCARTESIANPOINTLIST2D(((-51.250000000018126,-5572.4999999999991),(51.249999999981988,-5572.5),(51.250000000018126,5572.4999999999991),(-51.249999999982123,5572.5000000000009),(-51.250000000018126,-5572.4999999999991)));
#78=IFCINDEXEDPOLYCURVE(#77,$,.F.);
#79=IFCARBITRARYCLOSEDPROFILEDEF(.AREA.,'Wall-Ext_102Bwk-75Ins-100LBlk-12P',#78);
#80=IFCCARTESIANPOINT((5572.5000000000027,93.749999999999943,0.));
#81=IFCAXIS2PLACEMENT3D(#80,#9,#8);
#82=IFCEXTRUDEDAREASOLID(#79,#81,#9,7999.9999999999991);
#83=IFCCOLOURRGB($,0.97647058823529409,0.97647058823529409,0.97647058823529409);
#84=IFCSURFACESTYLERENDERING(#83,0.,$,$,$,$,IFCNORMALISEDRATIOMEASURE(0.5),IFCSPECULAREXPONENT(128.),.NOTDEFINED.);
#85=IFCSURFACESTYLE('Plaster',.BOTH.,(#84));
#86=IFCSTYLEDITEM(#60,(#85),$);
#87=IFCCOLOURRGB($,0.70980392156862748,0.70980392156862748,0.70980392156862748);
#88=IFCSURFACESTYLERENDERING(#87,0.,$,$,$,$,IFCNORMALISEDRATIOMEASURE(0.5),IFCSPECULAREXPONENT(64.),.NOTDEFINED.);
#89=IFCSURFACESTYLE('Concrete Masonry Units _Low Density',.BOTH.,(#88));
#90=IFCSTYLEDITEM(#70,(#89),$);
#91=IFCCOLOURRGB($,0.49803921568627452,0.49803921568627452,0.49803921568627452);
#92=IFCSURFACESTYLERENDERING(#91,0.,$,$,$,$,IFCNORMALISEDRATIOMEASURE(0.5),IFCSPECULAREXPONENT(64.),.NOTDEFINED.);
#93=IFCSURFACESTYLE('Fiberglass Batt',.BOTH.,(#92));
#94=IFCSTYLEDITEM(#76,(#93),$);
#95=IFCCOLOURRGB($,0.66666666666666663,0.39215686274509803,0.41176470588235292);
#96=IFCSURFACESTYLERENDERING(#95,0.,$,$,$,$,IFCNORMALISEDRATIOMEASURE(0.5),IFCSPECULAREXPONENT(128.),.NOTDEFINED.);
#97=IFCSURFACESTYLE('Brick, Common',.BOTH.,(#96));
#98=IFCSTYLEDITEM(#82,(#97),$);
#99=IFCSHAPEREPRESENTATION(#26,'Body','SweptSolid',(#60,#70,#76,#82));
#100=IFCSHAPEREPRESENTATION(#26,'Body','SweptSolid',(#82));
#101=IFCSHAPEASPECT((#100),'Brick, Common',$,.U.,#54);
#102=IFCSHAPEREPRESENTATION(#26,'Body','SweptSolid',(#76));
#103=IFCSHAPEASPECT((#102),'Fiberglass Batt',$,.U.,#54);
#104=IFCSHAPEREPRESENTATION(#26,'Body','SweptSolid',(#70));
#105=IFCSHAPEASPECT((#104),'Concrete Masonry Units _Low Density',$,.U.,#54);
#106=IFCSHAPEREPRESENTATION(#26,'Body','SweptSolid',(#60));
#107=IFCSHAPEASPECT((#106),'Plaster',$,.U.,#54);
#108=IFCWALL('3N6WUhIq1B5eETCDBS3keb',#18,'Basic Wall:Wall-Ext_102Bwk-75Ins-100LBlk-12P:314342',$,'Basic Wall:Wall-Ext_102Bwk-75Ins-100LBlk-12P',#50,#54,'314342',.NOTDEFINED.);
#109=IFCMATERIAL('Brick, Common',$,'Masonry');
#110=IFCMATERIAL('Fiberglass Batt',$,'Generic');
#111=IFCMATERIAL('Concrete Masonry Units _Low Density',$,'Masonry');
#112=IFCMATERIAL('Plaster',$,'Generic');
#113=IFCMATERIALCONSTITUENT('Brick, Common',$,#109,0.35344827586206895,'Masonry');
#114=IFCQUANTITYLENGTH('Width',$,$,102.5,$);
#115=IFCMATERIALCONSTITUENT('Fiberglass Batt',$,#110,0.25862068965517243,'Generic');
#116=IFCQUANTITYLENGTH('Width',$,$,75.,$);
#117=IFCMATERIALCONSTITUENT('Concrete Masonry Units _Low Density',$,#111,0.34482758620689657,'Masonry');
#118=IFCQUANTITYLENGTH('Width',$,$,100.,$);
#119=IFCMATERIALCONSTITUENT('Plaster',$,#112,0.043103448275862072,'Generic');
#120=IFCQUANTITYLENGTH('Width',$,$,12.5,$);
#121=IFCMATERIALCONSTITUENTSET('Basic Wall:Wall-Ext_102Bwk-75Ins-100LBlk-12P',$,(#113,#115,#117,#119));
#122=IFCPHYSICALCOMPLEXQUANTITY('Brick, Common',$,(#114),'Layer',$,$);
#123=IFCPHYSICALCOMPLEXQUANTITY('Fiberglass Batt',$,(#116),'Layer',$,$);
#124=IFCPHYSICALCOMPLEXQUANTITY('Concrete Masonry Units _Low Density',$,(#118),'Layer',$,$);
#125=IFCPHYSICALCOMPLEXQUANTITY('Plaster',$,(#120),'Layer',$,$);
#126=IFCQUANTITYLENGTH('Width',$,$,290.,$);
#127=IFCQUANTITYLENGTH('Height',$,$,7999.9999999999991,$);
#128=IFCQUANTITYLENGTH('Length',$,$,11000.,$);
#129=IFCQUANTITYVOLUME('GrossVolume',$,$,25.856399999999997,$);
#130=IFCQUANTITYAREA('GrossSideArea',$,$,89.159999999999982,$);
#131=IFCQUANTITYAREA('NetSideArea',$,$,89.159999999999997,$);
#132=IFCQUANTITYVOLUME('NetVolume',$,$,25.856400000000004,$);
#133=IFCELEMENTQUANTITY('1ktbsiZVz6A2hIaB3L6Qtc',#18,'Qto_WallBaseQuantities',$,$,(#122,#123,#124,#125,#126,#127,#128,#129,#130,#131,#132));
#134=IFCRELDEFINESBYPROPERTIES('0sEm3A3A7poeTJGO1yMnku',#18,$,$,(#108),#133);
#135=IFCWALLTYPE('2ru7YPT4T9MuTpOS4FRzxX',#18,'Basic Wall:Wall-Ext_102Bwk-75Ins-100LBlk-12P',$,$,(#155),$,'45419',$,.STANDARD.);
#136=IFCPROPERTYSINGLEVALUE('Reference',$,IFCIDENTIFIER('Wall-Ext_102Bwk-75Ins-100LBlk-12P'),$);
#137=IFCPROPERTYSET('0DyH16$QTUzYUjfyY_4x2e',#18,'Pset_EnvironmentalImpactIndicators',$,(#136));
#138=IFCPROPERTYSINGLEVALUE('Reference',$,IFCLABEL('Wall-Ext_102Bwk-75Ins-100LBlk-12P'),$);
#139=IFCPROPERTYSET('36et0Y$Jb6O$_1rxCOSqwC',#18,'Pset_ReinforcementBarPitchOfWall',$,(#138));
#140=IFCPROPERTYSINGLEVALUE('IsExternal',$,IFCBOOLEAN(.T.),$);
#141=IFCPROPERTYSINGLEVALUE('LoadBearing',$,IFCBOOLEAN(.F.),$);
#142=IFCPROPERTYSINGLEVALUE('ExtendToStructure',$,IFCBOOLEAN(.F.),$);
#143=IFCPROPERTYSET('2mvtBH16H$ajH6BGjT8O4_',#18,'Pset_WallCommon',$,(#136,#140,#141,#142));
#144=IFCRELDEFINESBYPROPERTIES('2ZCHaGNAU8p85RrwZRTEeH',#18,$,$,(#108),#137);
#145=IFCRELDEFINESBYPROPERTIES('0nUW8fa0AobALZ9AL1iw8o',#18,$,$,(#108),#139);
#146=IFCRELDEFINESBYPROPERTIES('1v4CHHmtL31ABI1JU$hdpA',#18,$,$,(#108),#143);
#147=IFCSIUNIT(*,.MASSUNIT.,.KILO.,.GRAM.);
#148=IFCDERIVEDUNITELEMENT(#147,1);
#149=IFCSIUNIT(*,.THERMODYNAMICTEMPERATUREUNIT.,$,.KELVIN.);
#150=IFCDERIVEDUNITELEMENT(#149,-1);
#151=IFCSIUNIT(*,.TIMEUNIT.,$,.SECOND.);
#152=IFCDERIVEDUNITELEMENT(#151,-3);
#153=IFCDERIVEDUNIT((#148,#150,#152),.THERMALTRANSMITTANCEUNIT.,$);
#154=IFCPROPERTYSINGLEVALUE('ThermalTransmittance',$,IFCTHERMALTRANSMITTANCEMEASURE(0.23592605993668123),$);
#155=IFCPROPERTYSET('3orq6BN_LwRCX23Dley2E6',#18,'Pset_WallCommon',$,(#154));
#156=IFCCARTESIANPOINT((4965.5815406769243,713.7194978920287,0.));
#157=IFCAXIS2PLACEMENT3D(#156,#9,#8);
#158=IFCLOCALPLACEMENT(#36,#157);
#159=IFCCARTESIANPOINTLIST3D(((0.,2.8817854441473061E-013,0.),(4855.0000000000018,9.3452770250932988E-013,0.)));
#160=IFCINDEXEDPOLYCURVE(#159,$,.F.);
#161=IFCSHAPEREPRESENTATION(#25,'Axis','Curve3D',(#160));
#162=IFCPRODUCTDEFINITIONSHAPE($,$,(#161,#191));
#163=IFCCARTESIANPOINTLIST2D(((-6.2500000000099494,-2427.5000000000005),(6.2499999999893747,-2427.5000000000005),(6.2500000000099494,2427.5000000000005),(-6.2499999999899165,2427.5000000000005),(-6.2500000000099494,-2427.5000000000005)));
#164=IFCINDEXEDPOLYCURVE(#163,$,.F.);
#165=IFCARBITRARYCLOSEDPROFILEDEF(.AREA.,'Wall-Ext_102Bwk-75Ins-100LBlk-12P',#164);
#166=IFCCARTESIANPOINT((2427.5000000000005,-138.7499999999998,0.));
#167=IFCAXIS2PLACEMENT3D(#166,#9,#7);
#168=IFCEXTRUDEDAREASOLID(#165,#167,#9,7999.9999999999991);
#169=IFCCARTESIANPOINTLIST2D(((-2433.7500000000005,-49.99999999999946),(2433.75,-49.99999999999946),(2433.75,49.99999999999946),(-2433.75,50.000000000000547),(-2433.7500000000005,-49.99999999999946)));
#170=IFCINDEXEDPOLYCURVE(#169,$,.F.);
#171=IFCARBITRARYCLOSEDPROFILEDEF(.AREA.,'Wall-Ext_102Bwk-75Ins-100LBlk-12P',#170);
#172=IFCCARTESIANPOINT((2421.2500000000005,-82.500000000000142,0.));
#173=IFCAXIS2PLACEMENT3D(#172,$,$);
#174=IFCEXTRUDEDAREASOLID(#171,#173,#9,7999.9999999999991);
#175=IFCCARTESIANPOINTLIST2D(((-2483.7500000000005,-37.499999999999595),(2483.75,-37.499999999999595),(2483.75,37.500000000000682),(-2483.75,37.500000000000682),(-2483.7500000000005,-37.499999999999595)));
#176=IFCINDEXEDPOLYCURVE(#175,$,.F.);
#177=IFCARBITRARYCLOSEDPROFILEDEF(.AREA.,'Wall-Ext_102Bwk-75Ins-100LBlk-12P',#176);
#178=IFCCARTESIANPOINT((2371.2500000000005,5.,0.));
#179=IFCAXIS2PLACEMENT3D(#178,$,$);
#180=IFCEXTRUDEDAREASOLID(#177,#179,#9,7999.9999999999991);
#181=IFCCARTESIANPOINTLIST2D(((-51.249999999996689,-2521.25),(51.25000000000275,-2521.2500000000009),(51.249999999997776,2521.25),(-51.25000000000275,2521.2500000000009),(-51.249999999996689,-2521.25)));
#182=IFCINDEXEDPOLYCURVE(#181,$,.F.);
#183=IFCARBITRARYCLOSEDPROFILEDEF(.AREA.,'Wall-Ext_102Bwk-75Ins-100LBlk-12P',#182);
#184=IFCCARTESIANPOINT((2333.75,93.750000000000568,0.));
#185=IFCAXIS2PLACEMENT3D(#184,#9,#8);
#186=IFCEXTRUDEDAREASOLID(#183,#185,#9,7999.9999999999991);
#187=IFCSTYLEDITEM(#168,(#85),$);
#188=IFCSTYLEDITEM(#174,(#89),$);
#189=IFCSTYLEDITEM(#180,(#93),$);
#190=IFCSTYLEDITEM(#186,(#97),$);
#191=IFCSHAPEREPRESENTATION(#26,'Body','SweptSolid',(#168,#174,#180,#186));
#192=IFCSHAPEREPRESENTATION(#26,'Body','SweptSolid',(#186));
#193=IFCSHAPEASPECT((#192),'Brick, Common',$,.U.,#162);
#194=IFCSHAPEREPRESENTATION(#26,'Body','SweptSolid',(#180));
#195=IFCSHAPEASPECT((#194),'Fiberglass Batt',$,.U.,#162);
#196=IFCSHAPEREPRESENTATION(#26,'Body','SweptSolid',(#174));
#197=IFCSHAPEASPECT((#196),'Concrete Masonry Units _Low Density',$,.U.,#162);
#198=IFCSHAPEREPRESENTATION(#26,'Body','SweptSolid',(#168));
#199=IFCSHAPEASPECT((#198),'Plaster',$,.U.,#162);
#200=IFCWALL('3N6WUhIq1B5eETCDBS3kty',#18,'Basic Wall:Wall-Ext_102Bwk-75Ins-100LBlk-12P:314431',$,'Basic Wall:Wall-Ext_102Bwk-75Ins-100LBlk-12P',#158,#162,'314431',.NOTDEFINED.);
#201=IFCQUANTITYLENGTH('Height',$,$,7999.9999999999991,$);
#202=IFCQUANTITYLENGTH('Length',$,$,5000.,$);
#203=IFCQUANTITYVOLUME('GrossVolume',$,$,11.263599999999999,$);
#204=IFCQUANTITYAREA('GrossSideArea',$,$,38.839999999999996,$);
#205=IFCQUANTITYAREA('NetSideArea',$,$,38.840000000000003,$);
#206=IFCQUANTITYVOLUME('NetVolume',$,$,11.263599999999995,$);
#207=IFCELEMENTQUANTITY('3pPUYG9dTkH9A1M3sLC4mo',#18,'Qto_WallBaseQuantities',$,$,(#122,#123,#124,#125,#126,#201,#202,#203,#204,#205,#206));
#208=IFCRELDEFINESBYPROPERTIES('3Hgn0XyNQrNhBByFHM0zBs',#18,$,$,(#200),#207);
#209=IFCPROPERTYSET('2qR9Cnj_LGFmJvsMyqKiCw',#18,'Pset_EnvironmentalImpactIndicators',$,(#136));
#210=IFCPROPERTYSINGLEVALUE('Reference',$,IFCLABEL('Wall-Ext_102Bwk-75Ins-100LBlk-12P'),$);
#211=IFCPROPERTYSET('0ztUxpJuYaCtM_8XDTI4eg',#18,'Pset_ReinforcementBarPitchOfWall',$,(#210));
#212=IFCPROPERTYSET('0ZstYBxJrMCuauG3yvBB7Z',#18,'Pset_WallCommon',$,(#136,#140,#141,#142));
#213=IFCRELDEFINESBYPROPERTIES('3d86Gllw43RG2gl75q8zwE',#18,$,$,(#200),#209);
#214=IFCRELDEFINESBYPROPERTIES('23TYaUVpkpaUZuUqKjlTmI',#18,$,$,(#200),#211);
#215=IFCRELDEFINESBYPROPERTIES('1qlwic$odOandxFJA07U_i',#18,$,$,(#200),#212);
#216=IFCPROPERTYSINGLEVALUE('Reference',$,IFCIDENTIFIER('Circle Head - Project Datum'),$);
#217=IFCPROPERTYSINGLEVALUE('AboveGround',$,IFCLOGICAL(.U.),$);
#218=IFCPROPERTYSET('2QFFSloDKLdASEirlNrsWG',#18,'Pset_BuildingStoreyCommon',$,(#216,#217));
#219=IFCRELDEFINESBYPROPERTIES('24vWbHxUvnwTMhwrnGQFQP',#18,$,$,(#37),#218);
#220=IFCRELCONTAINEDINSPATIALSTRUCTURE('3Zu5Bv0LOHrPC10066FoQQ',#18,$,$,(#108,#200),#37);
#221=IFCPROPERTYSET('2y6jqut2mGsxPM5c1zUPr2',#18,'Pset_BuildingStoreyCommon',$,(#216,#217));
#222=IFCRELDEFINESBYPROPERTIES('03h9WtlPXy$ENv9AiS5UZC',#18,$,$,(#41),#221);
#223=IFCRELAGGREGATES('2YBewnrr694VzX_RFGFTGX',#18,$,$,#29,(#44));
#224=IFCRELAGGREGATES('1JaocP5MKBxelTxDOaDLAT',#18,$,$,#44,(#34));
#225=IFCRELAGGREGATES('2$1LAsj$T3CPRLiPj39tWH',#18,$,$,#34,(#37,#41));
#226=IFCPROPERTYSINGLEVALUE('NumberOfStoreys',$,IFCINTEGER(1),$);
#227=IFCPROPERTYSINGLEVALUE('IsLandmarked',$,IFCLOGICAL(.U.),$);
#228=IFCPROPERTYSET('3PT2wHCosoBAkXkLL2MGE8',#18,'Pset_BuildingCommon',$,(#45,#226,#227));
#229=IFCPROPERTYSINGLEVALUE('IsExternal',$,IFCBOOLEAN(.F.),$);
#230=IFCPROPERTYSET('1KlIL8RBfQZQS9zl6EuZ9J',#18,'Pset_BuildingElementProxyCommon',$,(#45,#229));
#231=IFCPROPERTYSET('1heCxQyklatoKzuacdMIzv',#18,'Pset_BuildingStoreyCommon',$,(#45,#217));
#232=IFCPROPERTYSET('2ke$i3$ZinM4v8ZnD4aMjE',#18,'Pset_BuildingSystemCommon',$,(#45));
#233=IFCRELDEFINESBYPROPERTIES('0XpLhTPvMkXOqDV4KGGTr9',#18,$,$,(#34),#228);
#234=IFCRELDEFINESBYPROPERTIES('27E1wCfKVnw6ovNYqKjsER',#18,$,$,(#34),#230);
#235=IFCRELDEFINESBYPROPERTIES('1f3tpsTxHzpa7_9lyg_sFs',#18,$,$,(#34),#231);
#236=IFCRELDEFINESBYPROPERTIES('2wnNrohms1hP5p7igL5pM6',#18,$,$,(#34),#232);
#237=IFCRELASSOCIATESMATERIAL('1qVu2fC5a9tGtrEPo7s4mP',#18,$,$,(#108,#135,#200),#121);
#238=IFCRELDEFINESBYTYPE('0gcPovOn7QcR6iCsNwgUL8',#18,$,$,(#108,#200),#135);
#239=IFCPRESENTATIONLAYERASSIGNMENT('A-WALL-____-OTLN',$,(#53,#99,#100,#102,#104,#106,#161,#191,#192,#194,#196,#198),$);
#240=IFCUNITASSIGNMENT((#19,#20,#21,#64,#153));
ENDSEC;

END-ISO-10303-21;