ISO-10303-21;
HEADER;
FILE_DESCRIPTION(('ViewDefinition [ReferenceView_V1.2]','RevitIdentifiers [ContentGUID: 278ba6b0-79b4-4464-b501-e6c5a87694ab, VersionGUID: 5302cfab-1491-436b-9e02-fb9fd5a3f1d4, NumberOfSaves: 1]','CoordinateReference [CoordinateBase: Shared Coordinates]','ExchangeRequirement [Architecture]'),'2;1');
FILE_NAME('003_one_Floor.ifc','2026-06-18T18:59:58+01:00',(''),(''),'ODA SDAI 24.12','Autodesk Revit 25.4.50.35 (ENG) - IFC 25.4.50.35','');
FILE_SCHEMA(('IFC4'));
ENDSEC;

DATA;
#1=IFCORGANIZATION($,'Autodesk Revit 2025 (ENG)',$,$,$);
#2=IFCAPPLICATION(#1,'2025','Autodesk Revit 2025 (ENG)','Revit');
#3=IFCCARTESIANPOINT((0.,0.,0.));
#4=IFCCARTESIANPOINT((0.,0.));
#5=IFCDIRECTION((1.,0.,0.));
#6=IFCDIRECTION((-1.,0.,0.));
#7=IFCDIRECTION((0.,1.,0.));
#8=IFCDIRECTION((0.,-1.,0.));
#9=IFCDIRECTION((0.,0.,1.));
#10=IFCDIRECTION((0.,0.,-1.));
#11=IFCDIRECTION((1.,0.));
#12=IFCDIRECTION((-1.,0.));
#13=IFCDIRECTION((0.,1.));
#14=IFCDIRECTION((0.,-1.));
#15=IFCPERSON($,'','peiling.song',$,$,$,$,$);
#16=IFCORGANIZATION($,'','',$,$);
#17=IFCPERSONANDORGANIZATION(#15,#16,$);
#18=IFCOWNERHISTORY(#17,#2,$,.NOCHANGE.,$,$,$,1778592209);
#19=IFCSIUNIT(*,.LENGTHUNIT.,.MILLI.,.METRE.);
#20=IFCSIUNIT(*,.AREAUNIT.,$,.SQUARE_METRE.);
#21=IFCSIUNIT(*,.VOLUMEUNIT.,$,.CUBIC_METRE.);
#22=IFCAXIS2PLACEMENT3D(#3,$,$);
#23=IFCDIRECTION((6.123233995736766E-017,1.));
#24=IFCGEOMETRICREPRESENTATIONCONTEXT($,'Model',3,0.01,#22,#23);
#25=IFCGEOMETRICREPRESENTATIONSUBCONTEXT('Axis','Model',*,*,*,*,#24,$,.GRAPH_VIEW.,$);
#26=IFCGEOMETRICREPRESENTATIONSUBCONTEXT('Body','Model',*,*,*,*,#24,$,.MODEL_VIEW.,$);
#27=IFCGEOMETRICREPRESENTATIONSUBCONTEXT('Box','Model',*,*,*,*,#24,$,.MODEL_VIEW.,$);
#28=IFCGEOMETRICREPRESENTATIONSUBCONTEXT('FootPrint','Model',*,*,*,*,#24,$,.MODEL_VIEW.,$);
#29=IFCPROJECT('0dYwQmURH4PBK1viLNYMjR',#18,'Project Number',$,$,'Project Name','Project Status',(#24),#210);
#30=IFCCLASSIFICATION('CSI (Construction Specifications Institute)','1998',$,'Uniformat','UniFormat Classification','https://www.csiresources.org/standards/uniformat',$);
#31=IFCAXIS2PLACEMENT3D(#3,$,$);
#32=IFCLOCALPLACEMENT(#43,#31);
#33=IFCPOSTALADDRESS($,$,$,$,('Enter address here'),$,'London','London','','United Kingdom');
#34=IFCBUILDING('0dYwQmURH4PBK1viLNYMjQ',#18,'',$,$,#32,$,'',.ELEMENT.,$,$,#33);
#35=IFCAXIS2PLACEMENT3D(#3,$,$);
#36=IFCLOCALPLACEMENT(#32,#35);
#37=IFCBUILDINGSTOREY('3Zu5Bv0LOHrPC10026FoQQ',#18,'Level 0',$,'Level:Circle Head - Project Datum',#36,$,'Level 0',.ELEMENT.,0.);
#38=IFCCARTESIANPOINT((0.,0.,4000.));
#39=IFCAXIS2PLACEMENT3D(#38,$,$);
#40=IFCLOCALPLACEMENT(#32,#39);
#41=IFCBUILDINGSTOREY('15Z0v90RiHrPC20026FoKR',#18,'Level 1',$,'Level:Circle Head - Project Datum',#40,$,'Level 1',.ELEMENT.,3999.9999999999995);
#42=IFCAXIS2PLACEMENT3D(#3,$,$);
#43=IFCLOCALPLACEMENT($,#42);
#44=IFCSITE('0dYwQmURH4PBK1viLNYMjP',#18,'Default',$,$,#43,$,$,.ELEMENT.,(51,30,23,112487),(0,-7,-37,-956022),0.,$,$);
#45=IFCPROPERTYSINGLEVALUE('Reference',$,IFCIDENTIFIER('Project Information'),$);
#46=IFCPROPERTYSET('2$OqovXcHDNJp4MhZ489u5',#18,'Pset_SiteCommon',$,(#45));
#47=IFCRELDEFINESBYPROPERTIES('0O$SibHcRmi_tfXrP3Abtg',#18,$,$,(#44),#46);
#48=IFCAXIS2PLACEMENT3D(#3,$,$);
#49=IFCLOCALPLACEMENT(#36,#48);
#56=IFCCARTESIANPOINTLIST2D(((-3853.8303819319358,-835.79257699578079),(-3853.8303819319358,2464.2074230042194),(2446.1696180680647,2464.2074230042194),(2446.1696180680647,-835.79257699578079),(-3853.8303819319358,-835.79257699578079)));
#57=IFCINDEXEDPOLYCURVE(#56,$,.F.);
#58=IFCSHAPEREPRESENTATION(#28,'FootPrint','Curve2D',(#57));
#59=IFCPRODUCTDEFINITIONSHAPE($,$,(#58,#115));
#60=IFCSLAB('1J0i_h5953Qvu2_v$Lfpe8',#18,'Floor:Floor-Grnd-Susp_65Scr-80Ins-100Blk-75PC:314332',$,'Floor:Floor-Grnd-Susp_65Scr-80Ins-100Blk-75PC',#49,#59,'314332',.FLOOR.);
#61=IFCCARTESIANPOINTLIST2D(((-3149.9999999999995,-1650.),(3150.0000000000009,-1650.),(3149.9999999999995,1650.),(-3149.9999999999995,1650.),(-3149.9999999999995,-1650.)));
#62=IFCINDEXEDPOLYCURVE(#61,$,.F.);
#63=IFCARBITRARYCLOSEDPROFILEDEF(.AREA.,'Floor-Grnd-Susp_65Scr-80Ins-100Blk-75PC',#62);
#64=IFCCARTESIANPOINT((-703.83038193193534,814.20742300421932,-65.));
#65=IFCAXIS2PLACEMENT3D(#64,#9,#6);
#66=IFCEXTRUDEDAREASOLID(#63,#65,#9,65.);
#67=IFCSIUNIT(*,.PLANEANGLEUNIT.,$,.RADIAN.);
#68=IFCDIMENSIONALEXPONENTS(0,0,0,0,0,0,0);
#69=IFCMEASUREWITHUNIT(IFCPLANEANGLEMEASURE(0.017453292519943278),#67);
#70=IFCCONVERSIONBASEDUNIT(#68,.PLANEANGLEUNIT.,'DEGREE',#69);
#71=IFCCARTESIANPOINTLIST2D(((-3149.9999999999995,-1650.),(3150.0000000000009,-1650.),(3149.9999999999995,1650.),(-3149.9999999999995,1650.),(-3149.9999999999995,-1650.)));
#72=IFCINDEXEDPOLYCURVE(#71,$,.F.);
#73=IFCARBITRARYCLOSEDPROFILEDEF(.AREA.,'Floor-Grnd-Susp_65Scr-80Ins-100Blk-75PC',#72);
#74=IFCCARTESIANPOINT((-703.83038193193534,814.20742300421932,-145.));
#75=IFCAXIS2PLACEMENT3D(#74,#9,#6);
#76=IFCEXTRUDEDAREASOLID(#73,#75,#9,79.999999999999986);
#77=IFCCARTESIANPOINTLIST2D(((-3150.,-1650.),(3150.,-1650.),(3150.,1650.),(-3150.,1650.),(-3150.,-1650.)));
#78=IFCINDEXEDPOLYCURVE(#77,$,.F.);
#79=IFCARBITRARYCLOSEDPROFILEDEF(.AREA.,'Floor-Grnd-Susp_65Scr-80Ins-100Blk-75PC',#78);
#80=IFCCARTESIANPOINT((-703.83038193193568,814.20742300421932,-295.));
#81=IFCAXIS2PLACEMENT3D(#80,#9,#6);
#82=IFCEXTRUDEDAREASOLID(#79,#81,#9,150.);
#83=IFCCARTESIANPOINTLIST2D(((-3150.,-1650.),(3150.,-1650.),(3150.,1650.),(-3150.,1650.),(-3150.,-1650.)));
#84=IFCINDEXEDPOLYCURVE(#83,$,.F.);
#85=IFCARBITRARYCLOSEDPROFILEDEF(.AREA.,'Floor-Grnd-Susp_65Scr-80Ins-100Blk-75PC',#84);
#86=IFCCARTESIANPOINT((-703.83038193193568,814.20742300421932,-395.));
#87=IFCAXIS2PLACEMENT3D(#86,#9,#6);
#88=IFCEXTRUDEDAREASOLID(#85,#87,#9,100.);
#89=IFCCARTESIANPOINTLIST2D(((-3150.,-1650.),(3150.,-1650.),(3150.,1650.),(-3150.,1650.),(-3150.,-1650.)));
#90=IFCINDEXEDPOLYCURVE(#89,$,.F.);
#91=IFCARBITRARYCLOSEDPROFILEDEF(.AREA.,'Floor-Grnd-Susp_65Scr-80Ins-100Blk-75PC',#90);
#92=IFCCARTESIANPOINT((-703.83038193193568,814.20742300421932,-470.));
#93=IFCAXIS2PLACEMENT3D(#92,#9,#6);
#94=IFCEXTRUDEDAREASOLID(#91,#93,#9,75.);
#95=IFCCOLOURRGB($,0.49803921568627452,0.49803921568627452,0.49803921568627452);
#96=IFCSURFACESTYLERENDERING(#95,0.,$,$,$,$,IFCNORMALISEDRATIOMEASURE(0.5),IFCSPECULAREXPONENT(0.),.NOTDEFINED.);
#97=IFCSURFACESTYLE('Concrete, Sand/Cement Screed',.BOTH.,(#96));
#98=IFCSTYLEDITEM(#66,(#97),$);
#99=IFCCOLOURRGB($,0.49803921568627452,0.49803921568627452,0.49803921568627452);
#100=IFCSURFACESTYLERENDERING(#99,0.,$,$,$,$,IFCNORMALISEDRATIOMEASURE(0.5),IFCSPECULAREXPONENT(64.),.NOTDEFINED.);
#101=IFCSURFACESTYLE('Rigid insulation',.BOTH.,(#100));
#102=IFCSTYLEDITEM(#76,(#101),$);
#103=IFCCOLOURRGB($,1.,1.,1.);
#104=IFCSURFACESTYLERENDERING(#103,0.,$,$,$,$,IFCNORMALISEDRATIOMEASURE(0.5),IFCSPECULAREXPONENT(64.),.NOTDEFINED.);
#105=IFCSURFACESTYLE('Air',.BOTH.,(#104));
#106=IFCSTYLEDITEM(#82,(#105),$);
#107=IFCCOLOURRGB($,0.70980392156862748,0.70980392156862748,0.70980392156862748);
#108=IFCSURFACESTYLERENDERING(#107,0.,$,$,$,$,IFCNORMALISEDRATIOMEASURE(0.5),IFCSPECULAREXPONENT(128.),.NOTDEFINED.);
#109=IFCSURFACESTYLE('Concrete Masonry, Floor Block',.BOTH.,(#108));
#110=IFCSTYLEDITEM(#88,(#109),$);
#111=IFCCOLOURRGB($,0.75294117647058822,0.75294117647058822,0.75294117647058822);
#112=IFCSURFACESTYLERENDERING(#111,0.,$,$,$,$,IFCNORMALISEDRATIOMEASURE(0.5),IFCSPECULAREXPONENT(128.),.NOTDEFINED.);
#113=IFCSURFACESTYLE('Concrete, Precast',.BOTH.,(#112));
#114=IFCSTYLEDITEM(#94,(#113),$);
#115=IFCSHAPEREPRESENTATION(#26,'Body','SweptSolid',(#66,#76,#82,#88,#94));
#116=IFCSHAPEREPRESENTATION(#26,'Body','SweptSolid',(#66));
#117=IFCSHAPEASPECT((#116),'Concrete, Sand/Cement Screed',$,.U.,#59);
#118=IFCSHAPEREPRESENTATION(#26,'Body','SweptSolid',(#76));
#119=IFCSHAPEASPECT((#118),'Rigid insulation',$,.U.,#59);
#120=IFCSHAPEREPRESENTATION(#26,'Body','SweptSolid',(#82));
#121=IFCSHAPEASPECT((#120),'Air',$,.U.,#59);
#122=IFCSHAPEREPRESENTATION(#26,'Body','SweptSolid',(#88));
#123=IFCSHAPEASPECT((#122),'Concrete Masonry, Floor Block',$,.U.,#59);
#124=IFCSHAPEREPRESENTATION(#26,'Body','SweptSolid',(#94));
#125=IFCSHAPEASPECT((#124),'Concrete, Precast',$,.U.,#59);
#126=IFCSLABTYPE('2ru7YPT4T9MuTpOS4FRzx_',#18,'Floor:Floor-Grnd-Susp_65Scr-80Ins-100Blk-75PC',$,$,(#186),$,'45428',$,.FLOOR.);
#127=IFCMATERIAL('Concrete, Sand/Cement Screed',$,'Concrete');
#128=IFCMATERIAL('Vapor Retarder',$,'Generic');
#129=IFCCOLOURRGB($,0.47058823529411764,0.47058823529411764,0.47058823529411764);
#130=IFCSURFACESTYLERENDERING(#129,0.,$,$,$,$,IFCNORMALISEDRATIOMEASURE(0.5),IFCSPECULAREXPONENT(64.),.NOTDEFINED.);
#131=IFCSURFACESTYLE('Vapor Retarder',.BOTH.,(#130));
#132=IFCMATERIAL('Rigid insulation',$,'Generic');
#133=IFCMATERIAL('Air',$,'Gas');
#134=IFCMATERIAL('Damp-proofing',$,'Generic');
#135=IFCCOLOURRGB($,0.49803921568627452,0.49803921568627452,0.49803921568627452);
#136=IFCSURFACESTYLERENDERING(#135,0.,$,$,$,$,IFCNORMALISEDRATIOMEASURE(0.5),IFCSPECULAREXPONENT(64.),.NOTDEFINED.);
#137=IFCSURFACESTYLE('Damp-proofing',.BOTH.,(#136));
#138=IFCMATERIAL('Concrete Masonry, Floor Block',$,'Concrete');
#139=IFCMATERIAL('Concrete, Precast',$,'Concrete');
#140=IFCMATERIALCONSTITUENT('Concrete, Sand/Cement Screed',$,#127,0.13829787234042554,'Concrete');
#141=IFCQUANTITYLENGTH('Width',$,$,65.,$);
#142=IFCMATERIALCONSTITUENT('Rigid insulation',$,#132,0.1702127659574468,'Generic');
#143=IFCQUANTITYLENGTH('Width',$,$,80.,$);
#144=IFCMATERIALCONSTITUENT('Air',$,#133,0.31914893617021278,'Gas');
#145=IFCQUANTITYLENGTH('Width',$,$,150.,$);
#146=IFCMATERIALCONSTITUENT('Concrete Masonry, Floor Block',$,#138,0.21276595744680851,'Concrete');
#147=IFCQUANTITYLENGTH('Width',$,$,100.,$);
#148=IFCMATERIALCONSTITUENT('Concrete, Precast',$,#139,0.15957446808510639,'Concrete');
#149=IFCQUANTITYLENGTH('Width',$,$,75.,$);
#150=IFCMATERIALCONSTITUENTSET('Floor:Floor-Grnd-Susp_65Scr-80Ins-100Blk-75PC',$,(#140,#142,#144,#146,#148));
#151=IFCPHYSICALCOMPLEXQUANTITY('Concrete, Sand/Cement Screed',$,(#141),'Layer',$,$);
#152=IFCPHYSICALCOMPLEXQUANTITY('Rigid insulation',$,(#143),'Layer',$,$);
#153=IFCPHYSICALCOMPLEXQUANTITY('Air',$,(#145),'Layer',$,$);
#154=IFCPHYSICALCOMPLEXQUANTITY('Concrete Masonry, Floor Block',$,(#147),'Layer',$,$);
#155=IFCPHYSICALCOMPLEXQUANTITY('Concrete, Precast',$,(#149),'Layer',$,$);
#156=IFCQUANTITYLENGTH('Width',$,$,470.,$);
#157=IFCPROPERTYSINGLEVALUE('Reference',$,IFCIDENTIFIER('Floor-Grnd-Susp_65Scr-80Ins-100Blk-75PC'),$);
#158=IFCPROPERTYSET('1MiKz$Bw37EOrDPBoy6Vfo',#18,'Pset_EnvironmentalImpactIndicators',$,(#157));
#159=IFCPROPERTYSINGLEVALUE('Reference',$,IFCLABEL('Floor-Grnd-Susp_65Scr-80Ins-100Blk-75PC'),$);
#160=IFCPROPERTYSET('0vw_EBQX_tzjtwmYMCXgLX',#18,'Pset_ReinforcementBarPitchOfSlab',$,(#159));
#161=IFCPROPERTYSINGLEVALUE('PitchAngle',$,IFCPLANEANGLEMEASURE(0.),$);
#162=IFCPROPERTYSINGLEVALUE('IsExternal',$,IFCBOOLEAN(.F.),$);
#163=IFCPROPERTYSINGLEVALUE('LoadBearing',$,IFCBOOLEAN(.T.),$);
#164=IFCPROPERTYSET('2nmjjVPMTEhzy$AFbqZbtH',#18,'Pset_SlabCommon',$,(#157,#161,#162,#163));
#165=IFCRELDEFINESBYPROPERTIES('3neChNd9ZMWzrkHraYuLPw',#18,$,$,(#60),#158);
#166=IFCRELDEFINESBYPROPERTIES('30DMNtuHwQX4JrSeBPPkwi',#18,$,$,(#60),#160);
#167=IFCRELDEFINESBYPROPERTIES('3OrYCVPEf9GbjBwfZ1gkfD',#18,$,$,(#60),#164);
#168=IFCQUANTITYLENGTH('Width','',$,3300.,$);
#169=IFCQUANTITYLENGTH('Length','',$,6300.,$);
#170=IFCQUANTITYLENGTH('Depth','',$,75.,$);
#171=IFCQUANTITYLENGTH('Perimeter','',$,62.99212598425197,$);
#172=IFCQUANTITYAREA('GrossArea','',$,20.789999999999999,$);
#173=IFCQUANTITYAREA('NetArea','',$,20.789999999999999,$);
#174=IFCQUANTITYVOLUME('GrossVolume','',$,1.55925,$);
#175=IFCQUANTITYVOLUME('NetVolume','',$,9.7713000000000019,$);
#176=IFCELEMENTQUANTITY('1PRW9PlU14gprrd1PH2G$z',#18,'Qto_SlabBaseQuantities',$,$,(#151,#152,#153,#154,#155,#156,#169,#170,#171,#172,#173,#174,#175));
#177=IFCRELDEFINESBYPROPERTIES('0Ua9p4S5xga1ZCLiMpHDmr',#18,$,$,(#60),#176);
#178=IFCSIUNIT(*,.MASSUNIT.,.KILO.,.GRAM.);
#179=IFCDERIVEDUNITELEMENT(#178,1);
#180=IFCSIUNIT(*,.THERMODYNAMICTEMPERATUREUNIT.,$,.KELVIN.);
#181=IFCDERIVEDUNITELEMENT(#180,-1);
#182=IFCSIUNIT(*,.TIMEUNIT.,$,.SECOND.);
#183=IFCDERIVEDUNITELEMENT(#182,-3);
#184=IFCDERIVEDUNIT((#179,#181,#183),.THERMALTRANSMITTANCEUNIT.,$);
#185=IFCPROPERTYSINGLEVALUE('ThermalTransmittance',$,IFCTHERMALTRANSMITTANCEMEASURE(0.11743760826329636),$);
#186=IFCPROPERTYSET('2NrVHOjwmF6Qv_Sv8i23UT',#18,'Pset_SlabCommon',$,(#185));
#187=IFCPROPERTYSINGLEVALUE('Reference',$,IFCIDENTIFIER('Circle Head - Project Datum'),$);
#188=IFCPROPERTYSINGLEVALUE('AboveGround',$,IFCLOGICAL(.U.),$);
#189=IFCPROPERTYSET('2QFFSloDKLdASEirlNrsWG',#18,'Pset_BuildingStoreyCommon',$,(#187,#188));
#190=IFCRELDEFINESBYPROPERTIES('24vWbHxUvnwTMhwrnGQFQP',#18,$,$,(#37),#189);
#191=IFCRELCONTAINEDINSPATIALSTRUCTURE('3Zu5Bv0LOHrPC10066FoQQ',#18,$,$,(#60),#37);
#192=IFCPROPERTYSET('2y6jqut2mGsxPM5c1zUPr2',#18,'Pset_BuildingStoreyCommon',$,(#187,#188));
#193=IFCRELDEFINESBYPROPERTIES('03h9WtlPXy$ENv9AiS5UZC',#18,$,$,(#41),#192);
#194=IFCRELAGGREGATES('2YBewnrr694VzX_RFGFTGX',#18,$,$,#29,(#44));
#195=IFCRELAGGREGATES('1JaocP5MKBxelTxDOaDLAT',#18,$,$,#44,(#34));
#196=IFCRELAGGREGATES('2$1LAsj$T3CPRLiPj39tWH',#18,$,$,#34,(#37,#41));
#197=IFCPROPERTYSINGLEVALUE('NumberOfStoreys',$,IFCINTEGER(1),$);
#198=IFCPROPERTYSINGLEVALUE('IsLandmarked',$,IFCLOGICAL(.U.),$);
#199=IFCPROPERTYSET('3PT2wHCosoBAkXkLL2MGE8',#18,'Pset_BuildingCommon',$,(#45,#197,#198));
#200=IFCPROPERTYSET('1KlIL8RBfQZQS9zl6EuZ9J',#18,'Pset_BuildingElementProxyCommon',$,(#45,#162));
#201=IFCPROPERTYSET('1heCxQyklatoKzuacdMIzv',#18,'Pset_BuildingStoreyCommon',$,(#45,#188));
#202=IFCPROPERTYSET('2ke$i3$ZinM4v8ZnD4aMjE',#18,'Pset_BuildingSystemCommon',$,(#45));
#203=IFCRELDEFINESBYPROPERTIES('0XpLhTPvMkXOqDV4KGGTr9',#18,$,$,(#34),#199);
#204=IFCRELDEFINESBYPROPERTIES('27E1wCfKVnw6ovNYqKjsER',#18,$,$,(#34),#200);
#205=IFCRELDEFINESBYPROPERTIES('1f3tpsTxHzpa7_9lyg_sFs',#18,$,$,(#34),#201);
#206=IFCRELDEFINESBYPROPERTIES('2wnNrohms1hP5p7igL5pM6',#18,$,$,(#34),#202);
#207=IFCRELASSOCIATESMATERIAL('256XFddDNvRtBm0o0QPkIg',#18,$,$,(#60,#126),#150);
#208=IFCRELDEFINESBYTYPE('38B08YthVKLdXB2nMRbo0l',#18,$,$,(#60),#126);
#209=IFCPRESENTATIONLAYERASSIGNMENT('A-FLOR-____-OTLN',$,(#115,#116,#118,#120,#122,#124),$);
#210=IFCUNITASSIGNMENT((#19,#20,#21,#70,#184));
ENDSEC;

END-ISO-10303-21;