ISO-10303-21;
HEADER;
FILE_DESCRIPTION(('ViewDefinition [ReferenceView_V1.2]','RevitIdentifiers [ContentGUID: 278ba6b0-79b4-4464-b501-e6c5a87694ab, VersionGUID: d71a07ab-4b40-4b16-839d-30d2dc0a21c3, NumberOfSaves: 1]','CoordinateReference [CoordinateBase: Shared Coordinates]','ExchangeRequirement [Architecture]'),'2;1');
FILE_NAME('05_deleted_wall.ifc','2026-05-12T15:20:54+01:00',(''),(''),'ODA SDAI 24.12','Autodesk Revit 25.4.50.35 (ENG) - IFC 25.4.50.35','');
FILE_SCHEMA(('IFC4'));
ENDSEC;

DATA;
#1=IFCORGANIZATION($,'Autodesk Revit 2025 (ENG)',$,$,$);
#2=IFCAPPLICATION(#1,'2025','Autodesk Revit 2025 (ENG)','Revit');
#3=IFCCARTESIANPOINT((0.,0.,0.));
#4=IFCCARTESIANPOINT((0.,0.));
#5=IFCDIRECTION((1.,0.,0.));
#6=IFCDIRECTION((-1.,0.,0.));
#7=IFCDIRECTION((0.,1.,0.));
#8=IFCDIRECTION((0.,-1.,0.));
#9=IFCDIRECTION((0.,0.,1.));
#10=IFCDIRECTION((0.,0.,-1.));
#11=IFCDIRECTION((1.,0.));
#12=IFCDIRECTION((-1.,0.));
#13=IFCDIRECTION((0.,1.));
#14=IFCDIRECTION((0.,-1.));
#15=IFCPERSON($,'','peiling.song',$,$,$,$,$);
#16=IFCORGANIZATION($,'','',$,$);
#17=IFCPERSONANDORGANIZATION(#15,#16,$);
#18=IFCOWNERHISTORY(#17,#2,$,.NOCHANGE.,$,$,$,1778591820);
#19=IFCSIUNIT(*,.LENGTHUNIT.,.MILLI.,.METRE.);
#20=IFCSIUNIT(*,.AREAUNIT.,$,.SQUARE_METRE.);
#21=IFCSIUNIT(*,.VOLUMEUNIT.,$,.CUBIC_METRE.);
#22=IFCAXIS2PLACEMENT3D(#3,$,$);
#23=IFCDIRECTION((6.123233995736766E-017,1.));
#24=IFCGEOMETRICREPRESENTATIONCONTEXT($,'Model',3,0.01,#22,#23);
#25=IFCGEOMETRICREPRESENTATIONSUBCONTEXT('Axis','Model',*,*,*,*,#24,$,.GRAPH_VIEW.,$);
#26=IFCGEOMETRICREPRESENTATIONSUBCONTEXT('Body','Model',*,*,*,*,#24,$,.MODEL_VIEW.,$);
#27=IFCGEOMETRICREPRESENTATIONSUBCONTEXT('Box','Model',*,*,*,*,#24,$,.MODEL_VIEW.,$);
#28=IFCGEOMETRICREPRESENTATIONSUBCONTEXT('FootPrint','Model',*,*,*,*,#24,$,.MODEL_VIEW.,$);
#29=IFCPROJECT('0dYwQmURH4PBK1viLNYMjR',#18,'Project Number',$,$,'Project Name','Project Status',(#24),#352);
#30=IFCCLASSIFICATION('CSI (Construction Specifications Institute)','1998',$,'Uniformat','UniFormat Classification','https://www.csiresources.org/standards/uniformat',$);
#31=IFCAXIS2PLACEMENT3D(#3,$,$);
#32=IFCLOCALPLACEMENT(#43,#31);
#33=IFCPOSTALADDRESS($,$,$,$,('Enter address here'),$,'London','London','','United Kingdom');
#34=IFCBUILDING('0dYwQmURH4PBK1viLNYMjQ',#18,'',$,$,#32,$,'',.ELEMENT.,$,$,#33);
#35=IFCAXIS2PLACEMENT3D(#3,$,$);
#36=IFCLOCALPLACEMENT(#32,#35);
#37=IFCBUILDINGSTOREY('3Zu5Bv0LOHrPC10026FoQQ',#18,'Level 0',$,'Level:Circle Head - Project Datum',#36,$,'Level 0',.ELEMENT.,0.);
#38=IFCCARTESIANPOINT((0.,0.,4000.));
#39=IFCAXIS2PLACEMENT3D(#38,$,$);
#40=IFCLOCALPLACEMENT(#32,#39);
#41=IFCBUILDINGSTOREY('15Z0v90RiHrPC20026FoKR',#18,'Level 1',$,'Level:Circle Head - Project Datum',#40,$,'Level 1',.ELEMENT.,3999.9999999999995);
#42=IFCAXIS2PLACEMENT3D(#3,$,$);
#43=IFCLOCALPLACEMENT($,#42);
#44=IFCSITE('0dYwQmURH4PBK1viLNYMjP',#18,'Default',$,$,#43,$,$,.ELEMENT.,(51,30,23,112487),(0,-7,-37,-956022),0.,$,$);
#45=IFCPROPERTYSINGLEVALUE('Reference',$,IFCIDENTIFIER('Project Information'),$);
#46=IFCPROPERTYSET('2$OqovXcHDNJp4MhZ489u5',#18,'Pset_SiteCommon',$,(#45));
#47=IFCRELDEFINESBYPROPERTIES('0O$SibHcRmi_tfXrP3Abtg',#18,$,$,(#44),#46);
#48=IFCCARTESIANPOINT((-1995034.4184593228,858.71949789850191,0.));
#49=IFCAXIS2PLACEMENT3D(#48,$,$);
#50=IFCLOCALPLACEMENT(#36,#49);
#51=IFCCARTESIANPOINTLIST3D(((-2.7793761717254549E-012,0.,0.),(2000000.,1.3535839116229909E-013,0.)));
#52=IFCINDEXEDPOLYCURVE(#51,$,.F.);
#53=IFCSHAPEREPRESENTATION(#25,'Axis','Curve3D',(#52));
#54=IFCPRODUCTDEFINITIONSHAPE($,$,(#53,#107));
#55=IFCCARTESIANPOINTLIST2D(((-3999.9999999999995,-1000000.),(3999.9999999999995,-1000000.),(3999.9999999999995,999999.99999999965),(-3999.9999999999995,1000000.),(-3999.9999999999995,-1000000.)));
#56=IFCINDEXEDPOLYCURVE(#55,$,.F.);
#57=IFCCARTESIANPOINTLIST2D(((-357.41433643892827,993972.49999999965),(-1267.4143364389292,993972.49999999965),(-1267.4143364389292,994882.49999999977),(-357.41433643892827,994882.49999999977),(-357.41433643892827,993972.49999999965)));
#58=IFCINDEXEDPOLYCURVE(#57,$,.F.);
#59=IFCARBITRARYPROFILEDEFWITHVOIDS(.AREA.,'Wall-Ext_102Bwk-75Ins-100LBlk-12P',#56,(#58));
#60=IFCCARTESIANPOINT((1000000.,-145.,4000.));
#61=IFCAXIS2PLACEMENT3D(#60,#7,#9);
#62=IFCEXTRUDEDAREASOLID(#59,#61,#9,12.499999999999865);
#63=IFCSIUNIT(*,.PLANEANGLEUNIT.,$,.RADIAN.);
#64=IFCDIMENSIONALEXPONENTS(0,0,0,0,0,0,0);
#65=IFCMEASUREWITHUNIT(IFCPLANEANGLEMEASURE(0.017453292519943278),#63);
#66=IFCCONVERSIONBASEDUNIT(#64,.PLANEANGLEUNIT.,'DEGREE',#65);
#67=IFCCARTESIANPOINTLIST2D(((-3999.9999999999995,-1000000.0000000001),(3999.9999999999995,-999999.99999999988),(3999.9999999999995,999999.99999999988),(-3999.9999999999995,999999.99999999988),(-3999.9999999999995,-1000000.0000000001)));
#68=IFCINDEXEDPOLYCURVE(#67,$,.F.);
#69=IFCCARTESIANPOINTLIST2D(((-1267.4143364389292,993972.5),(-1267.4143364389292,994882.5),(-357.41433643892827,994882.5),(-357.41433643892827,993972.5),(-1267.4143364389292,993972.5)));
#70=IFCINDEXEDPOLYCURVE(#69,$,.F.);
#71=IFCARBITRARYPROFILEDEFWITHVOIDS(.AREA.,'Wall-Ext_102Bwk-75Ins-100LBlk-12P',#68,(#70));
#72=IFCCARTESIANPOINT((1000000.,-132.49999999999991,4000.));
#73=IFCAXIS2PLACEMENT3D(#72,#7,#9);
#74=IFCEXTRUDEDAREASOLID(#71,#73,#9,100.);
#75=IFCCARTESIANPOINTLIST2D(((-3999.9999999999991,-999999.99999999953),(4000.0000000000005,-999999.99999999988),(3999.9999999999991,999999.99999999988),(-3999.9999999999991,999999.99999999988),(-3999.9999999999991,-999999.99999999953)));
#76=IFCINDEXEDPOLYCURVE(#75,$,.F.);
#77=IFCCARTESIANPOINTLIST2D(((-1267.4143364389288,993972.5),(-1267.4143364389288,994882.5),(-357.41433643892776,994882.5),(-357.41433643892776,993972.5),(-1267.4143364389288,993972.5)));
#78=IFCINDEXEDPOLYCURVE(#77,$,.F.);
#79=IFCARBITRARYPROFILEDEFWITHVOIDS(.AREA.,'Wall-Ext_102Bwk-75Ins-100LBlk-12P',#76,(#78));
#80=IFCCARTESIANPOINT((1000000.,-32.499999999999922,4000.));
#81=IFCAXIS2PLACEMENT3D(#80,#7,#9);
#82=IFCEXTRUDEDAREASOLID(#79,#81,#9,74.999999999999872);
#83=IFCCARTESIANPOINTLIST2D(((-3999.9999999999995,-999999.99999999965),(3999.9999999999995,-1000000.),(3999.9999999999995,1000000.),(-3999.9999999999995,1000000.),(-3999.9999999999995,-999999.99999999965)));
#84=IFCINDEXEDPOLYCURVE(#83,$,.F.);
#85=IFCCARTESIANPOINTLIST2D(((-1267.4143364389292,993972.50000000012),(-1267.4143364389292,994882.50000000012),(-357.41433643892827,994882.50000000012),(-357.41433643892827,993972.50000000012),(-1267.4143364389292,993972.50000000012)));
#86=IFCINDEXEDPOLYCURVE(#85,$,.F.);
#87=IFCARBITRARYPROFILEDEFWITHVOIDS(.AREA.,'Wall-Ext_102Bwk-75Ins-100LBlk-12P',#84,(#86));
#88=IFCCARTESIANPOINT((1000000.,42.49999999999995,4000.));
#89=IFCAXIS2PLACEMENT3D(#88,#7,#9);
#90=IFCEXTRUDEDAREASOLID(#87,#89,#9,102.50000000000026);
#91=IFCCOLOURRGB($,0.97647058823529409,0.97647058823529409,0.97647058823529409);
#92=IFCSURFACESTYLERENDERING(#91,0.,$,$,$,$,IFCNORMALISEDRATIOMEASURE(0.5),IFCSPECULAREXPONENT(128.),.NOTDEFINED.);
#93=IFCSURFACESTYLE('Plaster',.BOTH.,(#92));
#94=IFCSTYLEDITEM(#62,(#93),$);
#95=IFCCOLOURRGB($,0.70980392156862748,0.70980392156862748,0.70980392156862748);
#96=IFCSURFACESTYLERENDERING(#95,0.,$,$,$,$,IFCNORMALISEDRATIOMEASURE(0.5),IFCSPECULAREXPONENT(64.),.NOTDEFINED.);
#97=IFCSURFACESTYLE('Concrete Masonry Units _Low Density',.BOTH.,(#96));
#98=IFCSTYLEDITEM(#74,(#97),$);
#99=IFCCOLOURRGB($,0.49803921568627452,0.49803921568627452,0.49803921568627452);
#100=IFCSURFACESTYLERENDERING(#99,0.,$,$,$,$,IFCNORMALISEDRATIOMEASURE(0.5),IFCSPECULAREXPONENT(64.),.NOTDEFINED.);
#101=IFCSURFACESTYLE('Fiberglass Batt',.BOTH.,(#100));
#102=IFCSTYLEDITEM(#82,(#101),$);
#103=IFCCOLOURRGB($,0.66666666666666663,0.39215686274509803,0.41176470588235292);
#104=IFCSURFACESTYLERENDERING(#103,0.,$,$,$,$,IFCNORMALISEDRATIOMEASURE(0.5),IFCSPECULAREXPONENT(128.),.NOTDEFINED.);
#105=IFCSURFACESTYLE('Brick, Common',.BOTH.,(#104));
#106=IFCSTYLEDITEM(#90,(#105),$);
#107=IFCSHAPEREPRESENTATION(#26,'Body','SweptSolid',(#62,#74,#82,#90));
#108=IFCSHAPEREPRESENTATION(#26,'Body','SweptSolid',(#90));
#109=IFCSHAPEASPECT((#108),'Brick, Common',$,.U.,#54);
#110=IFCSHAPEREPRESENTATION(#26,'Body','SweptSolid',(#82));
#111=IFCSHAPEASPECT((#110),'Fiberglass Batt',$,.U.,#54);
#112=IFCSHAPEREPRESENTATION(#26,'Body','SweptSolid',(#74));
#113=IFCSHAPEASPECT((#112),'Concrete Masonry Units _Low Density',$,.U.,#54);
#114=IFCSHAPEREPRESENTATION(#26,'Body','SweptSolid',(#62));
#115=IFCSHAPEASPECT((#114),'Plaster',$,.U.,#54);
#116=IFCWALL('3N6WUhIq1B5eETCDBS3keb',#18,'Basic Wall:Wall-Ext_102Bwk-75Ins-100LBlk-12P:314342',$,'Basic Wall:Wall-Ext_102Bwk-75Ins-100LBlk-12P',#50,#54,'314342',.NOTDEFINED.);
#117=IFCMATERIAL('Brick, Common',$,'Masonry');
#118=IFCMATERIAL('Fiberglass Batt',$,'Generic');
#119=IFCMATERIAL('Concrete Masonry Units _Low Density',$,'Masonry');
#120=IFCMATERIAL('Plaster',$,'Generic');
#121=IFCMATERIALCONSTITUENT('Brick, Common',$,#117,0.35344827586206895,'Masonry');
#122=IFCQUANTITYLENGTH('Width',$,$,102.5,$);
#123=IFCMATERIALCONSTITUENT('Fiberglass Batt',$,#118,0.25862068965517243,'Generic');
#124=IFCQUANTITYLENGTH('Width',$,$,75.,$);
#125=IFCMATERIALCONSTITUENT('Concrete Masonry Units _Low Density',$,#119,0.34482758620689657,'Masonry');
#126=IFCQUANTITYLENGTH('Width',$,$,100.,$);
#127=IFCMATERIALCONSTITUENT('Plaster',$,#120,0.043103448275862072,'Generic');
#128=IFCQUANTITYLENGTH('Width',$,$,12.5,$);
#129=IFCMATERIALCONSTITUENTSET('Basic Wall:Wall-Ext_102Bwk-75Ins-100LBlk-12P',$,(#121,#123,#125,#127));
#130=IFCPHYSICALCOMPLEXQUANTITY('Brick, Common',$,(#122),'Layer',$,$);
#131=IFCPHYSICALCOMPLEXQUANTITY('Fiberglass Batt',$,(#124),'Layer',$,$);
#132=IFCPHYSICALCOMPLEXQUANTITY('Concrete Masonry Units _Low Density',$,(#126),'Layer',$,$);
#133=IFCPHYSICALCOMPLEXQUANTITY('Plaster',$,(#128),'Layer',$,$);
#134=IFCQUANTITYLENGTH('Width',$,$,290.,$);
#135=IFCQUANTITYLENGTH('Height',$,$,7999.9999999999991,$);
#136=IFCQUANTITYLENGTH('Length',$,$,2000000.,$);
#137=IFCQUANTITYVOLUME('GrossVolume',$,$,4639.9999999999982,$);
#138=IFCQUANTITYAREA('GrossSideArea',$,$,15999.999999999995,$);
#139=IFCQUANTITYAREA('NetSideArea',$,$,15999.171899999999,$);
#140=IFCQUANTITYVOLUME('NetVolume',$,$,4639.7598509999989,$);
#141=IFCELEMENTQUANTITY('1ktbsiZVz6A2hIaB3L6Qtc',#18,'Qto_WallBaseQuantities',$,$,(#130,#131,#132,#133,#134,#135,#136,#137,#138,#139,#140));
#142=IFCRELDEFINESBYPROPERTIES('0sEm3A3A7poeTJGO1yMnku',#18,$,$,(#116),#141);
#143=IFCWALLTYPE('2ru7YPT4T9MuTpOS4FRzxX',#18,'Basic Wall:Wall-Ext_102Bwk-75Ins-100LBlk-12P',$,$,(#163),$,'45419',$,.STANDARD.);
#144=IFCPROPERTYSINGLEVALUE('Reference',$,IFCIDENTIFIER('Wall-Ext_102Bwk-75Ins-100LBlk-12P'),$);
#145=IFCPROPERTYSET('0DyH16$QTUzYUjfyY_4x2e',#18,'Pset_EnvironmentalImpactIndicators',$,(#144));
#146=IFCPROPERTYSINGLEVALUE('Reference',$,IFCLABEL('Wall-Ext_102Bwk-75Ins-100LBlk-12P'),$);
#147=IFCPROPERTYSET('36et0Y$Jb6O$_1rxCOSqwC',#18,'Pset_ReinforcementBarPitchOfWall',$,(#146));
#148=IFCPROPERTYSINGLEVALUE('IsExternal',$,IFCBOOLEAN(.T.),$);
#149=IFCPROPERTYSINGLEVALUE('LoadBearing',$,IFCBOOLEAN(.F.),$);
#150=IFCPROPERTYSINGLEVALUE('ExtendToStructure',$,IFCBOOLEAN(.F.),$);
#151=IFCPROPERTYSET('2mvtBH16H$ajH6BGjT8O4_',#18,'Pset_WallCommon',$,(#144,#148,#149,#150));
#152=IFCRELDEFINESBYPROPERTIES('2ZCHaGNAU8p85RrwZRTEeH',#18,$,$,(#116),#145);
#153=IFCRELDEFINESBYPROPERTIES('0nUW8fa0AobALZ9AL1iw8o',#18,$,$,(#116),#147);
#154=IFCRELDEFINESBYPROPERTIES('1v4CHHmtL31ABI1JU$hdpA',#18,$,$,(#116),#151);
#155=IFCSIUNIT(*,.MASSUNIT.,.KILO.,.GRAM.);
#156=IFCDERIVEDUNITELEMENT(#155,1);
#157=IFCSIUNIT(*,.THERMODYNAMICTEMPERATUREUNIT.,$,.KELVIN.);
#158=IFCDERIVEDUNITELEMENT(#157,-1);
#159=IFCSIUNIT(*,.TIMEUNIT.,$,.SECOND.);
#160=IFCDERIVEDUNITELEMENT(#159,-3);
#161=IFCDERIVEDUNIT((#156,#158,#160),.THERMALTRANSMITTANCEUNIT.,$);
#162=IFCPROPERTYSINGLEVALUE('ThermalTransmittance',$,IFCTHERMALTRANSMITTANCEMEASURE(0.23592605993668123),$);
#163=IFCPROPERTYSET('3orq6BN_LwRCX23Dley2E6',#18,'Pset_WallCommon',$,(#162));
#164=IFCCOLOURRGBLIST(((0.97647058823529409,0.97647058823529409,0.97647058823529409)));
#165=IFCINDEXEDPOLYGONALFACE((1,2,3,4,5,6,7,8));
#166=IFCINDEXEDPOLYGONALFACE((9,10,11,12,13,14,15,16));
#167=IFCINDEXEDPOLYGONALFACE((2,1,9,16));
#168=IFCINDEXEDPOLYGONALFACE((3,2,16,15));
#169=IFCINDEXEDPOLYGONALFACE((4,3,15,14));
#170=IFCINDEXEDPOLYGONALFACE((5,4,14,13));
#171=IFCINDEXEDPOLYGONALFACE((6,5,13,12));
#172=IFCINDEXEDPOLYGONALFACE((7,6,12,11));
#173=IFCINDEXEDPOLYGONALFACE((8,7,11,10));
#174=IFCINDEXEDPOLYGONALFACE((1,8,10,9));
#175=IFCCARTESIANPOINTLIST3D(((-24.999999999998174,-24.99999999999897,0.),(-24.999999999998174,-1.6919798895287386E-014,0.),(2.0303758674344865E-013,-1.6919798895287386E-014,0.),(2.7071678232459818E-013,157.0000000009822,0.),(910.00000000000375,157.0000000009822,0.),(910.00000000000375,-1.6919798895287386E-014,0.),(935.00000000000023,-1.6919798895287386E-014,0.),(935.00000000000023,-24.99999999999897,0.),(-24.999999999998174,-24.99999999999897,25.000000000000139),(935.00000000000023,-24.99999999999897,24.999999999999865),(935.00000000000023,-1.6919798895287386E-014,24.999999999999865),(910.00000000000375,-1.6919798895287386E-014,24.999999999999865),(910.00000000000375,157.0000000009822,24.999999999999865),(2.7071678232459818E-013,157.0000000009822,25.000000000000139),(2.0303758674344865E-013,-1.6919798895287386E-014,25.000000000000139),(-24.999999999998174,-1.6919798895287386E-014,25.000000000000139)));
#176=IFCPOLYGONALFACESET(#175,.T.,(#165,#166,#167,#168,#169,#170,#171,#172,#173,#174),$);
#177=IFCINDEXEDCOLOURMAP(#176,1.,#164,(1,1,1,1,1,1,1,1,1,1));
#178=IFCCOLOURRGB($,0.97647058823529409,0.97647058823529409,0.97647058823529409);
#179=IFCSURFACESTYLERENDERING(#178,0.,$,$,$,$,IFCNORMALISEDRATIOMEASURE(0.5),IFCSPECULAREXPONENT(128.),.NOTDEFINED.);
#180=IFCSURFACESTYLE('Window Frame',.BOTH.,(#179));
#181=IFCSTYLEDITEM(#176,(#180),$);
#182=IFCCOLOURRGBLIST(((0.97647058823529409,0.97647058823529409,0.97647058823529409)));
#183=IFCINDEXEDPOLYGONALFACEWITHVOIDS((1,2,3,4),((5,6,7,8)));
#184=IFCINDEXEDPOLYGONALFACE((1,4,9,10,11,12,13,14));
#185=IFCINDEXEDPOLYGONALFACEWITHVOIDS((10,9,15,16),((17,18,19,20)));
#186=IFCINDEXEDPOLYGONALFACE((18,17,21,22));
#187=IFCINDEXEDPOLYGONALFACEWITHVOIDS((21,27,28,22),((23,24,25,26)));
#188=IFCINDEXEDPOLYGONALFACE((23,5,8,24));
#189=IFCINDEXEDPOLYGONALFACE((4,3,15,9));
#190=IFCINDEXEDPOLYGONALFACE((17,20,27,21));
#191=IFCINDEXEDPOLYGONALFACE((6,5,23,26));
#192=IFCINDEXEDPOLYGONALFACE((16,15,3,2,29,30,31,32));
#193=IFCINDEXEDPOLYGONALFACE((20,19,28,27));
#194=IFCINDEXEDPOLYGONALFACE((6,26,25,7));
#195=IFCINDEXEDPOLYGONALFACE((29,2,1,14));
#196=IFCINDEXEDPOLYGONALFACE((30,29,14,13));
#197=IFCINDEXEDPOLYGONALFACE((31,30,13,12));
#198=IFCINDEXEDPOLYGONALFACE((32,31,12,11));
#199=IFCINDEXEDPOLYGONALFACE((16,32,11,10));
#200=IFCINDEXEDPOLYGONALFACE((22,28,19,18));
#201=IFCINDEXEDPOLYGONALFACE((8,7,25,24));
#202=IFCCARTESIANPOINTLIST3D(((7.4447115139264501E-013,157.00000000095986,-1.3535839116229909E-013),(910.00000000000045,157.00000000095986,-1.3535839116229909E-013),(910.00000000000102,157.00000000095832,910.00000000001307),(8.7982954255494408E-013,157.00000000096125,910.00000000001307),(60.000000000002061,157.00000000096102,850.00000000001182),(849.99999999999977,157.00000000095849,850.00000000001182),(849.99999999999977,157.00000000095849,75.000000000001222),(60.000000000002061,157.00000000096105,75.000000000001222),(1.2859047160418413E-012,240.00000000096136,910.00000000001307),(3.3839597790574771E-013,240.00000000096085,51.000000000001265),(8.7982954255494408E-013,255.00000000334259,49.687670047114281),(8.7982954255494408E-013,255.00000000334259,44.744967610263494),(1.0151879337172431E-012,327.50000000095997,33.808884669518932),(1.0151879337172431E-012,327.50000000095997,-1.3535839116229909E-013),(910.00000000000125,240.00000000095832,910.00000000001307),(910.00000000000023,240.00000000095881,51.000000000001265),(40.000000000005187,240.00000000096117,870.00000000000864),(40.000000000005187,240.00000000096077,63.000000000000163),(869.99999999999716,240.00000000095898,63.000000000002601),(869.99999999999682,240.00000000095852,870.00000000000864),(40.000000000004981,175.00000000096179,870.00000000000864),(40.000000000004917,175.00000000096179,63.000000000000163),(60.000000000002132,175.00000000096173,850.00000000001182),(60.000000000002061,175.00000000096173,75.000000000001222),(849.99999999999977,175.00000000095915,75.000000000001222),(849.99999999999977,175.00000000095915,850.00000000001182),(869.99999999999682,175.00000000095903,870.00000000000864),(869.99999999999682,175.00000000095903,63.000000000002601),(910.00000000000102,327.50000000095997,-1.3535839116229909E-013),(910.00000000000102,327.50000000095991,33.808884669518932),(910.0000000000008,255.00000000334256,44.744967610263494),(910.0000000000008,255.00000000334256,49.687670047114281)));
#203=IFCPOLYGONALFACESET(#202,.T.,(#183,#184,#185,#186,#187,#188,#189,#190,#191,#192,#193,#194,#195,#196,#197,#198,#199,#200,#201),$);
#204=IFCINDEXEDCOLOURMAP(#203,1.,#182,(1,1,1,1,1,1,1,1,1,1,1,1,1,1,1,1,1,1,1));
#205=IFCSTYLEDITEM(#203,(#180),$);
#206=IFCCOLOURRGBLIST(((0.,0.50196078431372548,0.75294117647058822)));
#207=IFCINDEXEDPOLYGONALFACE((1,2,3,4));
#208=IFCINDEXEDPOLYGONALFACE((5,6,7,8));
#209=IFCINDEXEDPOLYGONALFACE((2,1,5,8));
#210=IFCINDEXEDPOLYGONALFACE((3,2,8,7));
#211=IFCINDEXEDPOLYGONALFACE((4,3,7,6));
#212=IFCINDEXEDPOLYGONALFACE((1,4,6,5));
#213=IFCCARTESIANPOINTLIST3D(((69.999999999998366,204.00000000095847,93.000000000009578),(839.99999999999227,204.00000000095596,93.000000000009578),(839.99999999999227,204.00000000095599,840.00000000001273),(69.999999999998366,204.00000000095852,840.00000000001273),(69.999999999998437,228.00000000095849,93.000000000009578),(69.999999999998437,228.00000000095855,840.00000000001273),(839.99999999999227,228.00000000095596,840.00000000001273),(839.99999999999227,228.00000000095591,93.000000000009578)));
#214=IFCPOLYGONALFACESET(#213,.T.,(#207,#208,#209,#210,#211,#212),$);
#215=IFCINDEXEDCOLOURMAP(#214,0.10000000000000001,#206,(1,1,1,1,1,1));
#216=IFCCOLOURRGB($,0.,0.50196078431372548,0.75294117647058822);
#217=IFCSURFACESTYLERENDERING(#216,0.90000000000000002,$,$,$,$,IFCNORMALISEDRATIOMEASURE(0.5),IFCSPECULAREXPONENT(12.),.NOTDEFINED.);
#218=IFCSURFACESTYLE('Glass',.BOTH.,(#217));
#219=IFCSTYLEDITEM(#214,(#218),$);
#220=IFCCOLOURRGBLIST(((0.97647058823529409,0.97647058823529409,0.97647058823529409)));
#221=IFCINDEXEDPOLYGONALFACE((1,2,3,4));
#222=IFCINDEXEDPOLYGONALFACE((5,6,7,8));
#223=IFCINDEXEDPOLYGONALFACE((9,10,11,12));
#224=IFCINDEXEDPOLYGONALFACE((13,9,12,14));
#225=IFCINDEXEDPOLYGONALFACE((15,16,17,18));
#226=IFCINDEXEDPOLYGONALFACE((19,20,21,22));
#227=IFCINDEXEDPOLYGONALFACE((23,19,22,24));
#228=IFCINDEXEDPOLYGONALFACE((2,25,26,3));
#229=IFCINDEXEDPOLYGONALFACE((4,3,27,28));
#230=IFCINDEXEDPOLYGONALFACE((8,7,29,30));
#231=IFCINDEXEDPOLYGONALFACE((12,11,31,32));
#232=IFCINDEXEDPOLYGONALFACE((14,12,32,33));
#233=IFCINDEXEDPOLYGONALFACE((18,17,34,35));
#234=IFCINDEXEDPOLYGONALFACE((22,21,36,37));
#235=IFCINDEXEDPOLYGONALFACE((24,22,37,38));
#236=IFCINDEXEDPOLYGONALFACE((3,26,39,27));
#237=IFCINDEXEDPOLYGONALFACE((28,27,40,41));
#238=IFCINDEXEDPOLYGONALFACE((30,29,42,43));
#239=IFCINDEXEDPOLYGONALFACE((32,31,44,45));
#240=IFCINDEXEDPOLYGONALFACE((33,32,45,46));
#241=IFCINDEXEDPOLYGONALFACE((35,34,47,48));
#242=IFCINDEXEDPOLYGONALFACE((37,36,49,50));
#243=IFCINDEXEDPOLYGONALFACE((38,37,50,51));
#244=IFCINDEXEDPOLYGONALFACE((27,39,52,40));
#245=IFCINDEXEDPOLYGONALFACE((41,40,2,1));
#246=IFCINDEXEDPOLYGONALFACEWITHVOIDS((4,28,41,1),((6,42,29,7)));
#247=IFCINDEXEDPOLYGONALFACE((43,42,6,5));
#248=IFCINDEXEDPOLYGONALFACEWITHVOIDS((8,30,43,5),((10,44,31,11)));
#249=IFCINDEXEDPOLYGONALFACE((45,44,10,9));
#250=IFCINDEXEDPOLYGONALFACE((46,45,9,13));
#251=IFCINDEXEDPOLYGONALFACEWITHVOIDS((16,47,34,17),((14,33,46,13)));
#252=IFCINDEXEDPOLYGONALFACE((48,47,16,15));
#253=IFCINDEXEDPOLYGONALFACEWITHVOIDS((18,35,48,15),((20,49,36,21)));
#254=IFCINDEXEDPOLYGONALFACE((50,49,20,19));
#255=IFCINDEXEDPOLYGONALFACE((51,50,19,23));
#256=IFCINDEXEDPOLYGONALFACEWITHVOIDS((25,52,39,26),((24,38,51,23)));
#257=IFCINDEXEDPOLYGONALFACE((40,52,25,2));
#258=IFCCARTESIANPOINTLIST3D(((30.000000000000423,240.00000000096165,880.0000000000083),(30.00000000000049,245.77350269285444,880.0000000000083),(30.00000000000049,245.77350269285452,53.000000000007304),(30.000000000000423,240.00000000096162,53.000000000007034),(40.000000000002345,175.00000000096122,870.00000000000625),(40.000000000002551,240.00000000096162,870.00000000000625),(40.000000000002551,240.00000000096156,63.000000000009365),(40.000000000002274,175.00000000096134,63.000000000009365),(79.999999999991147,189.49289985000442,830.00000000001774),(69.851962275171871,175.00000000096114,840.14803772483663),(69.851962275171871,175.00000000096114,92.851962275178693),(79.999999999991147,189.49289985000442,102.99999999999784),(79.999999999991147,204.00000000095852,830.00000000001774),(79.999999999991218,204.00000000095847,102.99999999999784),(70.00000000000351,228.00000000095855,840.00000000000546),(70.00000000000351,204.00000000095852,840.00000000000546),(70.00000000000351,204.00000000095852,93.000000000010402),(70.00000000000351,228.00000000095849,93.000000000010402),(79.99999999999136,245.77350269285438,830.00000000001751),(79.99999999999136,228.00000000095852,830.00000000001751),(79.999999999991289,228.00000000095849,102.99999999999811),(79.999999999991417,245.77350269285438,102.99999999999811),(62.554245195482885,251.54700538474773,847.44575480452625),(62.554245195482814,251.54700538474742,85.554245195489358),(40.784609690827068,251.54700538474779,869.21539030918177),(40.784609690827068,251.54700538474785,63.784609690833818),(879.99999999999409,245.77350269285168,53.000000000007304),(879.99999999999432,240.00000000095881,53.000000000007034),(869.99999999999204,240.00000000095886,63.000000000009365),(869.9999999999917,175.00000000095855,63.000000000009365),(840.14803772482264,175.00000000095855,92.851962275178693),(830.00000000000341,189.49289985000192,102.99999999999784),(830.00000000000352,204.00000000095602,102.99999999999784),(839.99999999999091,204.00000000095599,93.000000000010402),(839.99999999999091,228.00000000095594,93.000000000010402),(830.0000000000033,228.00000000095605,102.99999999999811),(830.0000000000033,245.77350269285188,102.99999999999811),(847.44575480451169,251.54700538474484,85.554245195489628),(869.21539030916756,251.54700538474509,63.784609690833818),(879.99999999999409,245.77350269285168,880.0000000000083),(879.99999999999432,240.00000000095883,880.0000000000083),(869.99999999999204,240.00000000095886,870.00000000000625),(869.9999999999917,175.00000000095849,870.00000000000625),(840.14803772482264,175.00000000095861,840.14803772483663),(830.00000000000341,189.49289985000198,830.00000000001774),(830.00000000000352,204.00000000095602,830.00000000001774),(839.99999999999091,204.00000000095599,840.00000000000546),(839.99999999999091,228.00000000095596,840.00000000000546),(830.0000000000033,228.00000000095605,830.00000000001751),(830.0000000000033,245.77350269285188,830.00000000001751),(847.44575480451203,251.54700538474515,847.44575480452625),(869.21539030916756,251.54700538474509,869.21539030918177)));
#259=IFCPOLYGONALFACESET(#258,.T.,(#221,#222,#223,#224,#225,#226,#227,#228,#229,#230,#231,#232,#233,#234,#235,#236,#237,#238,#239,#240,#241,#242,#243,#244,#245,#246,#247,#248,#249,#250,#251,#252,#253,#254,#255,#256,#257),$);
#260=IFCINDEXEDCOLOURMAP(#259,1.,#220,(1,1,1,1,1,1,1,1,1,1,1,1,1,1,1,1,1,1,1,1,1,1,1,1,1,1,1,1,1,1,1,1,1,1,1,1,1));
#261=IFCSTYLEDITEM(#259,(#180),$);
#262=IFCSHAPEREPRESENTATION(#26,'Body','Tessellation',(#176,#203,#214,#259));
#263=IFCAXIS2PLACEMENT3D(#3,$,$);
#264=IFCREPRESENTATIONMAP(#263,#262);
#265=IFCWINDOWLININGPROPERTIES('3N6WUhIq1B5eETCDFS3kse',#18,'Windows_Sgl_Plain:910x910mm:314475',$,$,$,$,$,$,$,$,$,$,$,$,$);
#266=IFCWINDOWTYPE('1NikQl8CLUT6GCqgVgBUrs',#18,'Windows_Sgl_Plain:910x910mm',$,$,(#265,#301,#303),(#264),'248048',$,.WINDOW.,.NOTDEFINED.,$,$);
#267=IFCMATERIAL('Window Frame',$,'Miscellaneous');
#268=IFCMATERIAL('Glass',$,'Glass');
#269=IFCMATERIALCONSTITUENT('Trim',$,#267,0.40791832466969669,'Miscellaneous');
#270=IFCSHAPEREPRESENTATION(#26,'Body','Tessellation',(#176));
#271=IFCSHAPEASPECT((#270),'Trim',$,.U.,#264);
#272=IFCMATERIALCONSTITUENT('Frame/Mullion',$,#267,0.40791832466969669,'Miscellaneous');
#273=IFCSHAPEREPRESENTATION(#26,'Body','Tessellation',(#203,#259));
#274=IFCSHAPEASPECT((#273),'Frame/Mullion',$,.U.,#264);
#275=IFCMATERIALCONSTITUENT('Glass',$,#268,0.18416335066060671,'Glass');
#276=IFCSHAPEREPRESENTATION(#26,'Body','Tessellation',(#214));
#277=IFCSHAPEASPECT((#276),'Glass',$,.U.,#264);
#278=IFCMATERIALCONSTITUENTSET($,$,(#269,#272,#275));
#279=IFCCARTESIANTRANSFORMATIONOPERATOR3D($,$,#3,1.,$);
#280=IFCMAPPEDITEM(#264,#279);
#281=IFCSHAPEREPRESENTATION(#26,'Body','MappedRepresentation',(#280));
#282=IFCPRODUCTDEFINITIONSHAPE($,$,(#281));
#283=IFCCARTESIANPOINT((-1061.9184593230766,713.71949789204825,2732.5856635610703));
#284=IFCAXIS2PLACEMENT3D(#283,$,$);
#286=IFCWINDOW('3N6WUhIq1B5eETCDBS3kse',#18,'Windows_Sgl_Plain:910x910mm:314475',$,'Windows_Sgl_Plain:910x910mm',#351,#282,'314475',910.00000000000102,910.00000000000102,.WINDOW.,.NOTDEFINED.,$);
#287=IFCMATERIALCONSTITUENT('Window Frame',$,#267,0.68735353974247837,'Miscellaneous');
#288=IFCMATERIALCONSTITUENT('Glass',$,#268,0.31264646025752157,'Glass');
#289=IFCMATERIALCONSTITUENTSET($,$,(#287,#288));
#290=IFCPROPERTYSINGLEVALUE('Reference',$,IFCIDENTIFIER('910x910mm'),$);
#291=IFCPROPERTYSET('0CwC6QX1RPlSJoxxRGWFss',#18,'Pset_EnvironmentalImpactIndicators',$,(#290));
#292=IFCPROPERTYSET('2OGTgd14tKWldA1RNoDCJr',#18,'Pset_WindowCommon',$,(#148,#290));
#293=IFCRELDEFINESBYPROPERTIES('1Xod_jxjlfxMv9WB7$Ny68',#18,$,$,(#286),#291);
#294=IFCRELDEFINESBYPROPERTIES('16_3hCsH4NTWqKqbJh1SO7',#18,$,$,(#286),#292);
#295=IFCQUANTITYLENGTH('Width','',$,910.00000000000011,$);
#296=IFCQUANTITYLENGTH('Height','',$,910.00000000000011,$);
#297=IFCQUANTITYAREA('Area','',$,0.82810000000000028,$);
#298=IFCELEMENTQUANTITY('3jQMHDz9JMaJvHOzQ104Nh',#18,'Qto_WindowBaseQuantities',$,$,(#295,#296,#297));
#299=IFCRELDEFINESBYPROPERTIES('1bpxCdU_spX4JCbu4xLsst',#18,$,$,(#286),#298);
#300=IFCPROPERTYSINGLEVALUE('Manufacturer',$,IFCLABEL('Revit'),$);
#301=IFCPROPERTYSET('0wQoNqkrgHyXix3rC5OVC6',#18,'Pset_ManufacturerTypeInformation',$,(#300));
#302=IFCPROPERTYSINGLEVALUE('ThermalTransmittance',$,IFCTHERMALTRANSMITTANCEMEASURE(5.5617000000000001),$);
#303=IFCPROPERTYSET('0cXkY4sAjf8WXu_f5x66Wl',#18,'Pset_WindowCommon',$,(#302));
#304=IFCPROPERTYSINGLEVALUE('Reference',$,IFCIDENTIFIER('Circle Head - Project Datum'),$);
#305=IFCPROPERTYSINGLEVALUE('AboveGround',$,IFCLOGICAL(.U.),$);
#306=IFCPROPERTYSET('2QFFSloDKLdASEirlNrsWG',#18,'Pset_BuildingStoreyCommon',$,(#304,#305));
#307=IFCRELDEFINESBYPROPERTIES('24vWbHxUvnwTMhwrnGQFQP',#18,$,$,(#37),#306);
#308=IFCRELCONTAINEDINSPATIALSTRUCTURE('3Zu5Bv0LOHrPC10066FoQQ',#18,$,$,(#116,#286),#37);
#309=IFCPROPERTYSET('2y6jqut2mGsxPM5c1zUPr2',#18,'Pset_BuildingStoreyCommon',$,(#304,#305));
#310=IFCRELDEFINESBYPROPERTIES('03h9WtlPXy$ENv9AiS5UZC',#18,$,$,(#41),#309);
#311=IFCRELAGGREGATES('2YBewnrr694VzX_RFGFTGX',#18,$,$,#29,(#44));
#312=IFCRELAGGREGATES('1JaocP5MKBxelTxDOaDLAT',#18,$,$,#44,(#34));
#313=IFCRELAGGREGATES('2$1LAsj$T3CPRLiPj39tWH',#18,$,$,#34,(#37,#41));
#314=IFCPROPERTYSINGLEVALUE('NumberOfStoreys',$,IFCINTEGER(1),$);
#315=IFCPROPERTYSINGLEVALUE('IsLandmarked',$,IFCLOGICAL(.U.),$);
#316=IFCPROPERTYSET('3PT2wHCosoBAkXkLL2MGE8',#18,'Pset_BuildingCommon',$,(#45,#314,#315));
#317=IFCPROPERTYSINGLEVALUE('IsExternal',$,IFCBOOLEAN(.F.),$);
#318=IFCPROPERTYSET('1KlIL8RBfQZQS9zl6EuZ9J',#18,'Pset_BuildingElementProxyCommon',$,(#45,#317));
#319=IFCPROPERTYSET('1heCxQyklatoKzuacdMIzv',#18,'Pset_BuildingStoreyCommon',$,(#45,#305));
#320=IFCPROPERTYSET('2ke$i3$ZinM4v8ZnD4aMjE',#18,'Pset_BuildingSystemCommon',$,(#45));
#321=IFCRELDEFINESBYPROPERTIES('0XpLhTPvMkXOqDV4KGGTr9',#18,$,$,(#34),#316);
#322=IFCRELDEFINESBYPROPERTIES('27E1wCfKVnw6ovNYqKjsER',#18,$,$,(#34),#318);
#323=IFCRELDEFINESBYPROPERTIES('1f3tpsTxHzpa7_9lyg_sFs',#18,$,$,(#34),#319);
#324=IFCRELDEFINESBYPROPERTIES('2wnNrohms1hP5p7igL5pM6',#18,$,$,(#34),#320);
#325=IFCRELASSOCIATESMATERIAL('324NFf7j$_bXJfFMJ6d8JL',#18,$,$,(#266),#278);
#326=IFCRELASSOCIATESMATERIAL('3v3vS0PgUbnnFUgaG0NBm7',#18,$,$,(#286),#289);
#327=IFCRELASSOCIATESMATERIAL('1qVu2fC5a9tGtrEPo7s4mP',#18,$,$,(#116,#143),#129);
#328=IFCRELDEFINESBYTYPE('0gcPovOn7QcR6iCsNwgUL8',#18,$,$,(#116),#143);
#329=IFCRELDEFINESBYTYPE('0kZIxTLwN69vsypQYEcEHY',#18,$,$,(#286),#266);
#330=IFCPRESENTATIONLAYERASSIGNMENT('A-WALL-____-OTLN',$,(#53,#107,#108,#110,#112,#114),$);
#331=IFCPRESENTATIONLAYERASSIGNMENT('A-GLAZ-____-OTLN',$,(#262,#270,#273,#276,#281),$);
#332=IFCCARTESIANPOINTLIST2D(((910.00000000000102,-1.0952700152968188E-028),(910.00000000000091,910.0000000000357),(0.,910.00000000000102),(1.3535839116229909E-013,-1.0952700152968188E-028),(910.00000000000102,-1.0952700152968188E-028)));
#333=IFCINDEXEDPOLYCURVE(#332,$,.F.);
#334=IFCARBITRARYCLOSEDPROFILEDEF(.AREA.,$,#333);
#335=IFCAXIS2PLACEMENT3D(#3,#7,#9);
#336=IFCEXTRUDEDAREASOLID(#334,#335,#9,290.);
#337=IFCSHAPEREPRESENTATION(#26,'Body','SweptSolid',(#336));
#338=IFCPRODUCTDEFINITIONSHAPE($,$,(#337));
#339=IFCCARTESIANPOINT((1993972.4999999998,-145.00000000645372,2732.5856635610703));
#340=IFCAXIS2PLACEMENT3D(#339,$,$);
#341=IFCLOCALPLACEMENT(#50,#340);
#342=IFCOPENINGELEMENT('0rEpoM6E71uNZYIQsleDwE',#18,'Windows_Sgl_Plain:910x910mm:314475:1',$,$,#341,#338,'314475',.OPENING.);
#343=IFCRELVOIDSELEMENT('3N6WUhIq1B5eETCCRS3kse',#18,$,$,#116,#342);
#344=IFCQUANTITYLENGTH('Depth',$,$,290.,$);
#345=IFCQUANTITYLENGTH('Height',$,$,910.0000000000008,$);
#346=IFCQUANTITYLENGTH('Width',$,$,910.0000000000357,$);
#347=IFCELEMENTQUANTITY('30Fm62rehrxX9tp7wwYW3a',#18,'Qto_OpeningElementBaseQuantities',$,$,(#344,#345,#346));
#348=IFCRELDEFINESBYPROPERTIES('3K6MJv3F6kZfRirvWTQL7w',#18,$,$,(#342),#347);
#349=IFCRELFILLSELEMENT('3Mkek0tHHgRL9tiH9oXpLG',#18,$,$,#342,#286);
#350=IFCAXIS2PLACEMENT3D(#3,$,$);
#351=IFCLOCALPLACEMENT(#341,#350);
#352=IFCUNITASSIGNMENT((#19,#20,#21,#66,#161));
ENDSEC;

END-ISO-10303-21;